<?xml version="1.0" encoding="utf-8"?>
<!-- Generator: Adobe Illustrator 25.2.1, SVG Export Plug-In . SVG Version: 6.00 Build 0)  -->
<svg version="1.1" id="Layer_59" xmlns="http://www.w3.org/2000/svg" xmlns:xlink="http://www.w3.org/1999/xlink" x="0px" y="0px"
	 viewBox="0 0 24 24" style="enable-background:new 0 0 24 24;" xml:space="preserve">
<path d="M19.4,19.5L17,17.1l-2.4,2.4L13,17.9l2.4-2.4L13,13.1l1.6-1.6l2.4,2.4l2.4-2.4l1.6,1.6l-2.4,2.4l2.4,2.4L19.4,19.5z"/>
<path d="M3,4.5v3h6v3H6c-1.7,0-3,1.3-3,3v6h3h6v-3H6v-3h3c1.7,0,3-1.4,3-3v-3c0-1.7-1.3-3-3-3H3z"/>
</svg>
