<?xml version="1.0" encoding="utf-8"?>
<!-- Generator: Adobe Illustrator 25.2.1, SVG Export Plug-In . SVG Version: 6.00 Build 0)  -->
<svg version="1.1" id="Layer_57" xmlns="http://www.w3.org/2000/svg" xmlns:xlink="http://www.w3.org/1999/xlink" x="0px" y="0px"
	 viewBox="0 0 24 24" style="enable-background:new 0 0 24 24;" xml:space="preserve">
<style type="text/css">
	.st0{fill:#FFFFFF;}
</style>
<g>
	<path d="M2.6,17.5c0.1-0.3,0.4-0.4,0.7-0.4c0.9,0,1.7,0,2.6,0c0.1,0,0.2,0,0.3-0.2c1-2.1,2.1-4.3,3.1-6.4c0-0.1,0.1-0.2,0.1-0.3
		c0-2.3-0.1-4.5-0.1-6.8c0-0.5,0.2-0.7,0.7-0.7c1.9,0,3.9,0,5.8,0c0.5,0,0.7,0.2,0.7,0.7c0,1.7,0,3.4,0,5c0,0.1,0,0.2,0.1,0.3
		c0.5,0.6,1,1.1,1.4,1.7c0,0,0.1,0.1,0.1,0.1c-1.1,0.4-1.8,1.1-2,2.3c-0.2,1.2,0.3,2.1,1.3,2.7c-0.1,0-0.1,0.1-0.2,0.1
		c-2.8,1.9-5.6,3.8-8.4,5.7c-0.1,0.1-0.2,0.1-0.3,0.1c-1.3,0-2.6,0-3.9,0c0,0-0.1,0-0.1,0c-1-0.2-1.6-0.8-1.9-1.7
		c0-0.1-0.1-0.2-0.1-0.4C2.6,18.8,2.6,18.1,2.6,17.5z M15.3,9.9c0-0.9-0.7-1.6-1.6-1.7c-0.3,0-0.6,0.2-0.6,0.5
		c0,0.3,0.2,0.6,0.5,0.6c0.3,0,0.6,0.3,0.6,0.6c0,0.3-0.2,0.5-0.6,0.5c-0.3,0-0.6,0.3-0.5,0.6c0,0.3,0.3,0.5,0.6,0.5
		C14.6,11.5,15.3,10.8,15.3,9.9z"/>
	<path d="M18.8,11.5c0.9,0,1.7,0.7,1.7,1.7c0,0.9-0.7,1.6-1.7,1.6c-0.9,0-1.7-0.7-1.7-1.7C17.2,12.3,17.9,11.5,18.8,11.5z
		 M18.8,12.6c-0.3,0-0.5,0.3-0.5,0.6c0,0.3,0.3,0.5,0.6,0.5c0.3,0,0.6-0.3,0.6-0.6C19.4,12.9,19.1,12.6,18.8,12.6z"/>
	<path d="M19.9,9.4c-0.2-0.1-0.3-0.2-0.5-0.2C19,9,18.9,8.5,19.2,8.2c0.3-0.3,0.7-0.6,1-0.9c0.3-0.2,0.6-0.2,0.8,0
		c0.2,0.2,0.2,0.6-0.1,0.8c-0.1,0.1-0.2,0.2-0.4,0.4c0.2,0.1,0.3,0.2,0.5,0.2c0.4,0.2,0.5,0.6,0.1,0.9c-0.3,0.3-0.7,0.6-1,0.9
		c-0.3,0.2-0.6,0.2-0.8,0c-0.2-0.2-0.2-0.6,0.1-0.8C19.6,9.6,19.7,9.5,19.9,9.4z"/>
	<path d="M19.9,17c-0.1-0.1-0.3-0.3-0.4-0.4c-0.2-0.2-0.3-0.6-0.1-0.8c0.2-0.2,0.6-0.2,0.8,0c0.3,0.3,0.7,0.6,1,0.9
		c0.3,0.3,0.3,0.7-0.2,0.9c-0.2,0.1-0.3,0.1-0.5,0.2c0.1,0.1,0.2,0.2,0.4,0.3c0.3,0.3,0.3,0.6,0.1,0.8c-0.2,0.2-0.6,0.2-0.8,0
		c-0.3-0.3-0.6-0.6-1-0.9c-0.3-0.3-0.3-0.8,0.2-1C19.5,17.1,19.7,17.1,19.9,17z"/>
	<path class="st0" d="M15.3,9.9c0,0.9-0.7,1.6-1.6,1.7c-0.3,0-0.6-0.2-0.6-0.5c0-0.3,0.2-0.5,0.5-0.6c0.3,0,0.6-0.2,0.6-0.5
		c0-0.3-0.2-0.5-0.6-0.6c-0.3,0-0.6-0.3-0.5-0.6c0-0.3,0.3-0.5,0.6-0.5C14.6,8.2,15.3,9,15.3,9.9z"/>
	<path class="st0" d="M18.8,12.6c0.3,0,0.6,0.2,0.6,0.5c0,0.3-0.2,0.6-0.6,0.6c-0.3,0-0.5-0.3-0.6-0.5
		C18.3,12.9,18.5,12.6,18.8,12.6z"/>
</g>
</svg>
