<?xml version="1.0" encoding="utf-8"?>
<!-- Generator: Adobe Illustrator 25.2.1, SVG Export Plug-In . SVG Version: 6.00 Build 0)  -->
<svg version="1.1" xmlns="http://www.w3.org/2000/svg" xmlns:xlink="http://www.w3.org/1999/xlink" x="0px" y="0px"
	 viewBox="0 0 24 24" style="enable-background:new 0 0 24 24;" xml:space="preserve">
<g>
	<path d="M22,11.5c-0.1,0.1-0.2,0.2-0.3,0.2c-0.3,0-0.5-0.1-0.8-0.1c-0.2,0-0.2-0.1-0.2-0.2c0-0.1,0-0.2,0.2-0.2
		c0.3,0,0.5,0,0.8,0.1C21.9,11.2,22,11.3,22,11.5C22,11.4,22,11.4,22,11.5z"/>
	<path d="M15.3,15.5c-0.4-0.1-0.7-0.2-1.1-0.3c0,0,0,0,0,0c0.1-0.4-0.2-0.7-0.4-1c-0.5-0.7-1-1.4-1.5-2c0-0.1-0.1-0.1-0.1-0.2
		c-0.3,0.1-0.6,0.3-0.9,0.4c-0.4,0.2-0.9,0.4-1.3,0.6c-0.3,0.2-0.7,0.1-1,0.1c-1.1-0.1-2.1-0.3-3.2-0.4C5.3,12.6,5,12.2,5,11.7
		c0-0.4,0.4-0.8,0.9-0.7c0.7,0.1,1.5,0.2,2.2,0.3c0.4,0,0.7,0.1,1.1,0.1c0.1,0,0.2,0,0.3,0c0.5-0.2,1-0.4,1.5-0.7
		c0.1,0,0.2-0.1,0.3,0c1.4,0.1,2.7,0.3,4.1,0.4c0.2,0,0.4,0,0.7,0.1c0.1,0,0.2,0,0.2,0.1c0.2,0.3,0.4,0.6,0.6,0.9
		c-0.1,0.1-0.3,0.1-0.4,0.2c-0.7,0.4-1.1,1.2-0.9,2c0,0.1,0,0.2-0.1,0.3c-0.2,0.1-0.2,0.2-0.2,0.4C15.3,15.1,15.3,15.3,15.3,15.5z"
		/>
	<path d="M15.3,9.8c0.2,0.3,0.4,0.5,0.6,0.8c-1.3-0.1-2.5-0.2-3.7-0.3c0,0,0,0,0,0c0.2-0.1,0.5-0.2,0.7-0.3c0,0,0.1,0,0.1-0.1
		C13.9,8.9,14.7,8,15.5,7c0.1-0.1,0.1-0.2,0.2-0.3c0.2-1,0.4-2.1,0.6-3.1c0.1-0.5,0.5-0.8,1-0.7c0.5,0.1,0.8,0.5,0.7,1
		c-0.2,1.2-0.5,2.3-0.7,3.5c0,0.2-0.2,0.4-0.3,0.6C16.4,8.6,15.8,9.2,15.3,9.8z"/>
	<path d="M18.9,13.8c0,0.9-0.7,1.6-1.6,1.6c-0.9,0-1.6-0.7-1.6-1.5c0-0.9,0.7-1.6,1.6-1.6C18.2,12.3,18.9,12.9,18.9,13.8z"/>
	<path d="M14.2,15.8c0.4,0.1,0.7,0.2,1.1,0.3c0,0.2,0,0.4,0,0.6c0,1.3,0.1,2.6,0.1,3.9c0,0.4-0.2,0.6-0.6,0.6
		c-0.2,0-0.4-0.2-0.5-0.4c0-0.1,0-0.2,0-0.3c0-1.5-0.1-3-0.1-4.5C14.2,15.9,14.2,15.8,14.2,15.8z"/>
	<path d="M18.2,12.2c-0.4-0.1-0.7-0.1-1.1-0.2c0,0,0-0.1,0.1-0.1c0.7-1.2,1.5-2.4,2.2-3.6C19.4,8.1,19.6,8,19.7,8
		c0.2-0.1,0.4,0,0.6,0.2c0.1,0.2,0.2,0.4,0.1,0.6c0,0.1-0.1,0.1-0.1,0.2c-0.7,1.1-1.3,2.2-2,3.2C18.3,12.2,18.3,12.2,18.2,12.2
		C18.2,12.3,18.2,12.2,18.2,12.2z"/>
	<path d="M21.3,5.6c0,0,0.1,0.1,0.2,0.2c0,0.1-0.1,0.2-0.2,0.2c-0.3,0-0.6,0.1-0.9,0.1c-0.1,0-0.2-0.1-0.2-0.2c0-0.1,0-0.2,0.1-0.2
		C20.6,5.7,20.9,5.7,21.3,5.6z"/>
	<path d="M19.7,17.1c-0.4-0.1-0.7-0.2-1-0.3c0,0-0.1-0.1-0.1-0.2c0-0.1,0.1-0.2,0.2-0.1c0.3,0.1,0.6,0.1,0.9,0.2
		c0.1,0,0.1,0.1,0.1,0.2C19.8,17,19.7,17,19.7,17.1z"/>
	<path d="M17.3,16.2c-0.1,0.1-0.1,0.1-0.3,0C17,16.1,17,16.1,17.3,16.2z"/>
	<path d="M9.9,7.5c-0.1,0-0.2,0-0.2,0c0,0-0.1-0.1-0.1-0.1c0.1,0,0.2-0.1,0.2-0.1C9.8,7.3,9.9,7.4,9.9,7.5C9.9,7.4,9.9,7.4,9.9,7.5
		z"/>
	<path d="M15.4,6.7c-0.1,0-0.2,0-0.3,0c0,0-0.1,0-0.1,0c0,0,0.1-0.1,0.1-0.1C15.2,6.6,15.4,6.5,15.4,6.7z"/>
	<path d="M7.2,10.1C7.1,10.1,7.1,10,7,10c0,0,0.1-0.1,0.1-0.1C7.2,10,7.3,10,7.4,10C7.3,10.1,7.3,10.1,7.2,10.1z"/>
	<path d="M3.7,9.6c0.1,0,0.1,0.1,0.2,0.1c0,0-0.1,0.1-0.1,0.1c-0.1,0-0.1-0.1-0.2-0.1C3.6,9.6,3.6,9.6,3.7,9.6z"/>
	<path d="M4.4,8.2c-0.1,0-0.2,0-0.2,0c0,0-0.1-0.1-0.1-0.1c0.1,0,0.2-0.1,0.2-0.1C4.3,8.1,4.4,8.2,4.4,8.2C4.4,8.2,4.4,8.2,4.4,8.2
		z"/>
	<path d="M13.4,10.5c0.1,0,0.1,0.1,0.2,0.1c0,0-0.1,0.1-0.1,0.1c-0.1,0-0.1,0-0.2-0.1C13.3,10.6,13.3,10.5,13.4,10.5z"/>
	<path d="M16.9,11c-0.1,0-0.1-0.1-0.2-0.1c0,0,0.1-0.1,0.1-0.1c0.1,0,0.1,0.1,0.2,0.1C17,11,17,11,16.9,11z"/>
	<path d="M3.2,9.6c0,0-0.1,0.1-0.1,0.1c-0.1,0-0.2,0-0.2,0c0,0,0-0.1,0.1-0.1C3,9.5,3.1,9.6,3.2,9.6C3.2,9.6,3.2,9.6,3.2,9.6z"/>
	<path d="M12.9,10.6c0,0-0.1,0.1-0.1,0.1c-0.1,0-0.1,0-0.2,0c0,0,0-0.1,0.1-0.1C12.7,10.5,12.8,10.5,12.9,10.6
		C12.9,10.5,12.9,10.5,12.9,10.6z"/>
	<path d="M11.5,10.5c-0.1,0-0.1,0-0.1,0c-0.1,0-0.1-0.1-0.2-0.1c0,0,0.1-0.1,0.1-0.1C11.4,10.4,11.5,10.3,11.5,10.5z"/>
	<path d="M8.3,7.7c0,0-0.1-0.1-0.1-0.1c0.1,0,0.2-0.1,0.2-0.1c0,0,0.1,0,0.1,0.1C8.4,7.6,8.4,7.7,8.3,7.7z"/>
	<path d="M11.2,14.7c-0.1,0.1-0.1,0.1-0.3,0C10.9,14.6,10.9,14.6,11.2,14.7z"/>
	<path d="M13.6,15.4c0,0,0.1-0.1,0.1-0.1c0.1,0,0.2,0,0.2,0.1c0,0-0.1,0.1-0.1,0.1C13.7,15.5,13.7,15.4,13.6,15.4
		C13.6,15.4,13.6,15.4,13.6,15.4z"/>
	<path d="M19.3,6.2c0,0-0.1-0.1-0.1-0.1c0.1,0,0.2-0.1,0.2-0.1c0,0,0.1,0,0.1,0.1C19.5,6.1,19.4,6.1,19.3,6.2z"/>
	<path d="M14.3,6.7c0.1,0,0.1,0,0.2,0c0.1,0,0.1,0,0.2,0c0,0,0,0.1-0.1,0.1C14.6,6.8,14.4,6.9,14.3,6.7z"/>
	<path d="M13.7,6.8c0.1,0,0.1,0,0.2,0c0,0,0.1,0,0.1,0.1c0,0-0.1,0.1-0.1,0.1C13.8,6.9,13.7,7,13.7,6.8z"/>
	<path d="M9.2,10.1c0.1,0.1,0.1,0.1,0.2,0.1c0,0-0.1,0.1-0.1,0c-0.1,0-0.1-0.1-0.2-0.1C9.1,10.2,9.2,10.1,9.2,10.1z"/>
	<path d="M6.7,10c0,0-0.1,0.1-0.1,0.1c-0.1,0-0.1,0-0.2,0c0,0,0.1-0.1,0.1-0.1C6.5,9.9,6.6,9.9,6.7,10C6.7,9.9,6.7,9.9,6.7,10z"/>
	<path d="M10.2,7.3c0.1,0,0.2,0,0.2,0c0,0,0.1,0,0.1,0.1c0,0-0.1,0.1-0.1,0.1C10.4,7.4,10.3,7.4,10.2,7.3
		C10.2,7.3,10.2,7.3,10.2,7.3z"/>
	<path d="M4.7,8C4.8,8,4.9,8,5,8C5,8,5,8.1,5.1,8.1C5,8.1,4.9,8.2,4.9,8.2C4.8,8.2,4.8,8.1,4.7,8C4.7,8.1,4.7,8.1,4.7,8z"/>
	<path d="M10.7,10.5c-0.1,0-0.1-0.1-0.2-0.1c0,0,0.1-0.1,0.1-0.1c0.1,0,0.2,0,0.2,0.1C10.8,10.4,10.7,10.4,10.7,10.5z"/>
	<path d="M16.4,10.8c0,0.1,0,0.1-0.3,0.1C16,10.8,16,10.8,16.4,10.8z"/>
	<path d="M4.4,13.1c-0.1,0-0.2-0.1-0.3-0.1c0,0,0,0,0-0.1c0.1,0,0.1,0,0.2,0C4.4,13,4.4,13,4.4,13.1C4.5,13.1,4.4,13.1,4.4,13.1z"
		/>
	<path d="M5.8,13.4c0,0-0.1,0.1-0.1,0c-0.1,0-0.1-0.1-0.2-0.1c0,0,0.1-0.1,0.1-0.1C5.7,13.3,5.7,13.3,5.8,13.4
		C5.8,13.4,5.8,13.4,5.8,13.4z"/>
	<path d="M8.5,14.1c0,0-0.1,0.1-0.1,0c-0.1,0-0.2-0.1-0.3-0.1c0,0,0.1-0.1,0.1-0.1C8.4,14,8.4,14,8.5,14.1
		C8.5,14.1,8.5,14.1,8.5,14.1z"/>
	<path d="M10.5,14.6c-0.1,0.2-0.2,0-0.3,0C10.3,14.4,10.4,14.5,10.5,14.6z"/>
	<path d="M11.9,14.9c-0.1,0.1-0.1,0.1-0.1,0.1c-0.1,0-0.2-0.1-0.3-0.1c0,0,0.1-0.1,0.1-0.1C11.7,14.8,11.8,14.9,11.9,14.9z"/>
	<path d="M12.5,15.1c-0.1,0-0.3,0-0.3-0.2C12.4,15,12.5,14.9,12.5,15.1z"/>
	<path d="M14.2,15.6c0.1-0.1,0.3,0,0.4,0C14.5,15.7,14.5,15.7,14.2,15.6z"/>
	<path d="M9.2,7.5c-0.1,0-0.2,0-0.3,0c0,0-0.1,0-0.1-0.1c0,0,0-0.1,0.1-0.1C9,7.5,9.1,7.4,9.2,7.5z"/>
	<path d="M15.6,15.8c0.3,0.1,0.3,0.1,0.3,0.2C15.8,15.9,15.6,16,15.6,15.8z"/>
	<path d="M16.3,16c0,0,0.1-0.1,0.1-0.1c0.1,0,0.2,0.1,0.2,0.1c0,0-0.1,0.1-0.1,0.1C16.4,16.2,16.4,16.1,16.3,16
		C16.3,16.1,16.3,16.1,16.3,16z"/>
	<path d="M17.9,16.5c-0.1,0-0.1,0-0.2,0c0,0-0.1-0.1-0.1-0.1c0.1,0,0.1,0,0.2,0C17.9,16.4,18,16.3,17.9,16.5z"/>
	<path d="M13.3,7C13.2,7,13.1,7,13,7c0,0,0,0,0,0c0,0,0.1-0.1,0.1-0.1C13.2,6.9,13.3,6.8,13.3,7z"/>
	<path d="M5.2,13.3c0,0-0.1,0-0.1,0c-0.1,0-0.2-0.1-0.2-0.1c0,0,0.1-0.1,0.1-0.1C5,13.1,5.1,13.2,5.2,13.3
		C5.2,13.2,5.2,13.2,5.2,13.3z"/>
	<path d="M11,7.3c0,0-0.1-0.1-0.1-0.1c0.1,0,0.1-0.1,0.2-0.1c0,0,0.1,0,0.1,0.1C11.2,7.3,11.1,7.3,11,7.3z"/>
	<path d="M6.2,13.4c0.1,0,0.2,0,0.2,0.1c0,0,0,0.1,0,0.1c-0.1,0-0.2,0-0.2,0C6.2,13.6,6.2,13.5,6.2,13.4
		C6.2,13.5,6.2,13.5,6.2,13.4z"/>
	<path d="M7.5,7.7c0,0,0.1-0.1,0.1-0.1c0.1,0,0.2,0,0.2,0c0,0,0,0.1,0,0.1C7.7,7.8,7.6,7.8,7.5,7.7C7.5,7.8,7.5,7.8,7.5,7.7z"/>
	<path d="M7.5,13.9c0.1-0.1,0.3-0.1,0.4,0c0,0-0.1,0.1-0.1,0.1C7.7,14,7.6,13.9,7.5,13.9z"/>
	<path d="M5.6,7.9c0,0,0.1,0.1,0.1,0.1C5.7,8,5.6,8.1,5.5,8.1c0,0-0.1,0-0.1-0.1C5.5,8,5.6,7.9,5.6,7.9z"/>
	<path d="M8.9,14.1c0.1,0,0.2,0,0.2,0.1c0,0,0,0.1,0,0.1c-0.1,0-0.2,0-0.3,0C8.9,14.2,8.9,14.2,8.9,14.1
		C8.9,14.1,8.9,14.1,8.9,14.1z"/>
	<path d="M4.2,9.7c0,0,0.1-0.1,0.1-0.1c0.1,0,0.2,0,0.2,0c0,0,0,0.1-0.1,0.1C4.4,9.8,4.3,9.8,4.2,9.7C4.2,9.8,4.2,9.8,4.2,9.7z"/>
	<path d="M5.3,9.9c-0.1,0-0.2,0-0.3,0c0,0,0-0.1-0.1-0.1C5,9.8,5,9.7,5,9.7C5.1,9.8,5.3,9.7,5.3,9.9z"/>
	<path d="M5.9,10c0,0-0.1,0-0.1,0c-0.1,0-0.1-0.1-0.2-0.1c0.1,0,0.1-0.1,0.2-0.1C5.9,9.8,5.9,9.9,5.9,10C6,9.9,6,9.9,5.9,10z"/>
	<path d="M8,10.2c-0.1,0-0.2,0-0.3,0C7.7,9.9,7.9,10,8,10C8,10,8,10.1,8,10.2C8,10.1,8,10.1,8,10.2z"/>
	<path d="M12.9,15.1c0.1,0,0.2,0,0.3,0.1c0,0,0,0.1,0,0.1c-0.1,0-0.2,0-0.3,0C12.9,15.3,12.9,15.2,12.9,15.1z"/>
	<path d="M9.8,10.3c0.1-0.1,0.1-0.1,0.3-0.1C10.1,10.4,10.1,10.4,9.8,10.3z"/>
	<path d="M19.8,11.2c0,0.1,0,0.1-0.3,0.1C19.5,11.1,19.5,11.1,19.8,11.2z"/>
	<path d="M15.3,15.8c-0.1,0-0.2,0-0.3-0.1c0,0,0-0.1,0-0.1c0,0,0.1,0,0.1,0C15.1,15.7,15.3,15.6,15.3,15.8z"/>
	<path d="M14.8,10.8c-0.1,0-0.1-0.1-0.2-0.1c0,0,0.1-0.1,0.1-0.1c0.1,0,0.1,0.1,0.2,0.1C14.9,10.8,14.9,10.8,14.8,10.8z"/>
	<path d="M20.5,11.2c-0.1,0.1-0.3,0.1-0.3,0.1c0,0,0-0.1,0-0.1c0,0,0.1,0,0.1,0C20.3,11.2,20.4,11.2,20.5,11.2z"/>
	<path d="M18.8,6.2c-0.1,0-0.2,0-0.3,0.1c0,0,0,0,0-0.1c0,0,0.1-0.1,0.1-0.1C18.8,6.1,18.8,6.1,18.8,6.2z"/>
	<path d="M17.9,6.4c0-0.1,0-0.1,0-0.2c0.1,0,0.2-0.1,0.2-0.1c0,0,0.1,0,0.1,0.1C18.1,6.3,18,6.3,17.9,6.4z"/>
	<path d="M2.8,12.6c0.1,0,0.2,0,0.3,0.1c0,0,0,0.1,0,0.1c-0.1,0-0.2,0-0.3,0C2.8,12.7,2.8,12.7,2.8,12.6z"/>
	<path d="M15.5,10.7c0.1,0,0.1,0.1,0.2,0.1c0,0-0.1,0.1-0.1,0.1c-0.1,0-0.1-0.1-0.2-0.1C15.4,10.8,15.4,10.7,15.5,10.7z"/>
	<path d="M6.9,7.9c0,0-0.1-0.1-0.1-0.1c0.1,0,0.1-0.1,0.2-0.1c0,0,0.1,0,0.1,0.1C7.1,7.8,7,7.9,6.9,7.9z"/>
	<path d="M11.9,7c0,0.1,0,0.1-0.3,0.2C11.6,7.1,11.6,7.1,11.9,7z"/>
	<path d="M12.3,7.2c0-0.1,0-0.1,0-0.1C12.4,7,12.5,7,12.5,7c0,0,0.1,0,0.1,0.1C12.6,7.1,12.5,7.1,12.3,7.2
		C12.4,7.2,12.4,7.2,12.3,7.2z"/>
	<path d="M13.9,10.7c0,0,0.1-0.1,0.1-0.1c0.1,0,0.2,0,0.2,0c0,0-0.1,0.1-0.1,0.1C14.1,10.7,14,10.7,13.9,10.7
		C13.9,10.7,13.9,10.7,13.9,10.7z"/>
	<path d="M6.4,7.8C6.4,8,6.4,8,6.1,8C6.1,7.9,6.1,7.9,6.4,7.8z"/>
	<path d="M9.6,14.3c0.1,0,0.2,0,0.2,0.1c0,0,0,0.1,0,0.1c-0.1,0-0.2,0-0.2,0C9.6,14.4,9.6,14.4,9.6,14.3
		C9.5,14.3,9.6,14.3,9.6,14.3z"/>
	<path d="M3.8,12.9c-0.1,0-0.3,0-0.3-0.1C3.6,12.8,3.7,12.8,3.8,12.9z"/>
	<path d="M6.8,13.7c0,0,0.1-0.1,0.1,0c0.1,0,0.1,0.1,0.2,0.1c0,0-0.1,0.1-0.1,0.1C7,13.8,6.9,13.8,6.8,13.7
		C6.8,13.7,6.8,13.7,6.8,13.7z"/>
	<path d="M11.8,10.5c0.1-0.1,0.1-0.1,0.1-0.1c0.1,0,0.2,0,0.3,0.1c0,0,0,0.1-0.1,0.1C12,10.5,12,10.5,11.8,10.5z"/>
	<path d="M8.6,10.2c-0.1,0-0.1-0.1-0.2-0.1c0,0,0.1-0.1,0.1-0.1c0.1,0,0.1,0.1,0.2,0.1C8.7,10.2,8.6,10.2,8.6,10.2z"/>
	<path d="M2.1,9.6c0.1-0.1,0.1-0.1,0.1-0.1c0.1,0,0.2,0,0.3,0.1c0,0,0,0.1-0.1,0.1C2.4,9.6,2.3,9.6,2.1,9.6z"/>
</g>
</svg>
