<?xml version="1.0" encoding="utf-8"?>
<!-- Generator: Adobe Illustrator 25.2.1, SVG Export Plug-In . SVG Version: 6.00 Build 0)  -->
<svg version="1.1" xmlns="http://www.w3.org/2000/svg" xmlns:xlink="http://www.w3.org/1999/xlink" x="0px" y="0px"
	 viewBox="0 0 24 24" style="enable-background:new 0 0 24 24;" xml:space="preserve">
<style type="text/css">
	.st0{display:none;}
	.st1{display:inline;}
</style>
<g id="mdi-pentagon" class="st0">
	<path class="st1" d="M12,2.5L2,9.8l3.8,11.7h12.4L22,9.8L12,2.5z"/>
</g>
<g id="Layer_2" class="st0">
	<g class="st1">
		<path d="M21.7,18c0,0.1-0.1,0.2-0.1,0.3c-0.3,1.2-1.5,2-2.7,1.8c-1.2-0.1-2.1-1.2-2.1-2.4c0-1.2,0.9-2.3,2.1-2.5
			c1.3-0.2,2.6,0.7,2.8,2c0,0,0,0.1,0,0.1C21.7,17.6,21.7,17.8,21.7,18z"/>
		<path d="M6.2,21.7c-2.2,0-4-1.8-4-4c0-2.2,1.8-4,4-3.9c2.2,0,4,1.8,4,4C10.2,19.9,8.4,21.7,6.2,21.7z"/>
		<path d="M8.7,4.8c0,1.4-1.1,2.5-2.5,2.5c-1.4,0-2.5-1.1-2.5-2.5c0-1.4,1.1-2.5,2.5-2.5C7.6,2.3,8.7,3.4,8.7,4.8z"/>
		<path d="M16.6,9.8c-1.4,0-2.5-1.1-2.5-2.5c0-1.4,1.1-2.5,2.5-2.5C17.9,4.9,19,6,19,7.4C19,8.7,17.9,9.9,16.6,9.8z"/>
		<path d="M9.5,13.7c1.4-1.4,2.8-2.8,4.1-4.1c0.2,0.2,0.5,0.5,0.7,0.7c-1.3,1.3-2.7,2.7-4.1,4.1C10,14.2,9.8,13.9,9.5,13.7z"/>
		<path d="M11.4,17.1c1.4,0,2.8,0,4.2,0c0,0.4,0,0.7,0,1.1c-1.4,0-2.8,0-4.2,0C11.4,17.9,11.4,17.5,11.4,17.1z"/>
		<path d="M6.8,12.6c-0.4,0-0.7,0-1.1,0c0-1.4,0-2.8,0-4.2c0.4,0,0.7,0,1.1,0C6.8,9.8,6.8,11.2,6.8,12.6z"/>
	</g>
</g>
<g id="Layer_3">
	<g>
		<path d="M2.2,2.3c1.4,0,2.7,0,4.1,0c0.1,0,0.2,0,0.3,0.1c2.8,3.3,5.5,6.6,8.3,9.8c0.4,0.5,0.8,1,1.2,1.5c0.1,0.1,0.1,0.1,0.3,0
			c0.9-0.4,1.9-0.2,2.6,0.4c-1.6,1.6-3.2,3.2-4.8,4.8c-0.3-0.3-0.5-0.8-0.6-1.3c-0.1-0.4,0-0.9,0.2-1.3c0.1-0.1,0-0.2-0.1-0.3
			c-2.8-2.3-5.5-4.7-8.3-7c-1-0.9-2.1-1.7-3.1-2.6C2.2,5.1,2.2,3.7,2.2,2.3z M4.3,5.1c1.3,1.3,2.7,2.7,4,4c0.2-0.2,0.5-0.5,0.8-0.7
			C7.7,7,6.4,5.7,5,4.4C4.8,4.6,4.5,4.9,4.3,5.1z"/>
		<path d="M2.2,18.3c0.5,0,1.1,0,1.6,0c0.1,0,0.2,0,0.3-0.1c0.5-0.5,1-1,1.5-1.5c0,0,0.1-0.1,0.1-0.1c0.5,0.5,1.1,1.1,1.6,1.6
			c-0.2,0.2-0.4,0.4-0.7,0.7c-0.3,0.3-0.6,0.6-0.9,0.9c-0.1,0.1-0.1,0.2-0.1,0.3c0,0.5,0,1.1,0,1.7c-1.1,0-2.3,0-3.4,0
			C2.2,20.6,2.2,19.4,2.2,18.3z"/>
		<path d="M18.2,21.7c0-0.6,0-1.1,0-1.7c0-0.1,0-0.2-0.1-0.3c-0.5-0.5-1.1-1.1-1.6-1.6c0.5-0.5,1.1-1.1,1.6-1.6c0,0,0.1,0.1,0.1,0.1
			c0.5,0.5,1,1,1.4,1.5c0.1,0.1,0.2,0.1,0.3,0.1c0.5,0,1.1,0,1.6,0c0,1.1,0,2.3,0,3.4C20.5,21.7,19.4,21.7,18.2,21.7z"/>
		<path d="M15.7,11.5c-1-1.2-2-2.4-3.1-3.6c0.3-0.4,0.6-0.7,0.9-1c1.2-1.5,2.5-2.9,3.7-4.4c0.1-0.1,0.2-0.2,0.4-0.2
			c1.3,0,2.5,0,3.8,0c0.1,0,0.1,0,0.2,0c0,0.1,0,0.1,0,0.2c0,1.3,0,2.6,0,3.9c0,0.1,0,0.2-0.1,0.2C19.6,8.2,17.7,9.9,15.7,11.5
			C15.8,11.5,15.8,11.5,15.7,11.5z M18.8,4.4c-1.3,1.3-2.7,2.7-4,4c0.2,0.2,0.5,0.5,0.7,0.7c1.3-1.3,2.7-2.7,4-4
			C19.3,4.9,19.1,4.6,18.8,4.4z"/>
		<path d="M8.3,13.1c0.9,0.8,1.9,1.6,2.8,2.4c-0.3,0.2-0.5,0.4-0.8,0.7c-0.1,0.1-0.1,0.2-0.1,0.3c0.4,0.9,0.2,1.9-0.4,2.5
			c-1.6-1.6-3.2-3.2-4.8-4.8c0.3-0.3,0.8-0.5,1.3-0.6c0.5-0.1,0.9,0,1.3,0.2c0.1,0.1,0.2,0,0.2-0.1C7.9,13.5,8.1,13.3,8.3,13.1z"/>
	</g>
</g>
</svg>
