<?xml version="1.0" encoding="utf-8"?>
<!-- Generator: Adobe Illustrator 25.2.1, SVG Export Plug-In . SVG Version: 6.00 Build 0)  -->
<svg version="1.1" id="Layer_62" xmlns="http://www.w3.org/2000/svg" xmlns:xlink="http://www.w3.org/1999/xlink" x="0px" y="0px"
	 viewBox="0 0 24 24" style="enable-background:new 0 0 24 24;" xml:space="preserve">
<path d="M21.6,11.4c0,0.2,0,0.3,0,0.5c0,0,0,0,0,0.2c-0.2,1.1-1.3,1.8-2.4,1.6c-0.8-0.2-1.3-0.6-1.6-1.3C17.4,12,17.3,12,17.1,12
	s-0.3,0.3-0.2,0.5c0.2,0.2,0.2,0.5,0.3,0.6v0.2c-0.8,1.5-2.6,2.3-4.2,1.9c-0.8-0.2-1.5-0.5-1.9-0.8c-0.2-0.2-0.3-0.2-0.5,0
	c-0.2,0.3-0.2,0.5,0,0.6s0.3,0.2,0.3,0.3c0,0,0,0.2-0.2,0.2c-0.6,0.8-1.5,1.1-2.6,1c-1.1-0.2-2.1-1.3-2.3-2.4
	c-0.2-1.6,1.1-3.1,2.7-3.1c0.6,0,1.3,0,1.9,0s1-0.5,1-1c0-0.3,0.2-0.5,0.5-0.5c0.3,0,0.6,0,1,0c0.2,0,0.3-0.2,0.3-0.3S13.2,9,13.1,9
	c-0.3,0-0.6,0-1.1,0c-0.5,0-1,0.5-1,1c0,0.3-0.2,0.5-0.5,0.5c-0.6,0-1.3,0-1.9,0c-1.6,0-2.9,1-3.2,2.6c-0.2,0.3-0.2,0.8-0.2,1.3
	c-1.1,0-2.3-0.8-2.6-1.8c0.2,0,0.2,0.2,0.3,0.2s0.3,0,0.5-0.2c0.2-0.2,0-0.3,0-0.5l-0.2-0.2c-0.5-0.3-0.8-0.6-1-1.1
	c0.2-0.2,0.2-0.3,0.2-0.5c0-0.2,0-0.3,0-0.5c0.2-1,0.8-1.5,1.8-1.8c0.2,0,0.3-0.2,0.3-0.3c0-0.2-0.2-0.3-0.5-0.3
	c-0.2,0-0.3,0-0.5,0.2c0-0.5,0.2-0.6,0.5-1c0.6-0.6,1.5-0.8,2.4-0.5c0.2,0.2,0.5,0,0.5-0.2c0-0.2,0-0.3-0.2-0.5
	c-0.2,0-0.2-0.2-0.3-0.2l0.2-0.2c0.8-1,2.3-0.8,3.1,0.2c0.2,0.2,0.3,0.3,0.5,0.2c0.2-0.2,0.2-0.3,0-0.5C10,4.8,10,4.6,9.8,4.4
	C10.5,4,11.6,4,12.1,4.3c0,0,0,0-0.2,0c-0.2,0.2-0.2,0.3-0.2,0.5c0.2,0.2,0.3,0.2,0.5,0.2h0.2c0.6-0.3,1.5-0.5,2.3-0.5
	c1.1,0.2,2.1,0.8,2.6,1.9c0.2,0.2,0.3,0.3,0.5,0.2c0.2-0.2,0.2-0.3,0.2-0.5c0-0.2-0.2-0.3-0.2-0.5c0.5,0.2,1,0.5,1.5,0.8
	c1,1,1.1,2.3,0.8,3.6c-0.2,0.3,0,0.5,0.2,0.5s0.3,0,0.5-0.3c0-0.2,0.2-0.3,0.2-0.5c0.5,0.3,0.8,0.6,1,1.1
	C21.5,11.2,21.6,11.4,21.6,11.4z"/>
<path d="M20.2,14.5c0.2,0.6,0.2,1.1-0.2,1.6c-0.5,0.8-1.1,1.1-1.9,1.5c-1.1,0.3-2.3,0.2-3.2-0.6c-0.2-0.2-0.3-0.3-0.6-0.6
	c1.6-0.2,2.9-1,3.7-2.3C18.5,14.5,19.2,14.6,20.2,14.5z"/>
<path d="M15.8,18.8c0,0.2,0,0.3,0,0.6c0,0.2,0,0.3-0.2,0.5c-0.2,0-0.3,0-0.5-0.2c-0.6-0.6-1.1-1.3-1.8-2.1c-0.3-0.3-0.6-0.5-1-0.5
	c-0.5,0-0.8-0.3-1-0.8c0-0.2,0-0.2,0-0.3c0.2-0.3,0.5-0.3,0.8-0.2c0.3,0.2,0.6,0.2,1,0.3c0,0,0.2,0,0.2,0.2c0.5,1,1.3,1.5,2.3,1.8
	c0.2,0,0.2,0.2,0.2,0.2C15.8,18.5,15.8,18.7,15.8,18.8z"/>
</svg>
