<?xml version="1.0" encoding="utf-8"?>
<!-- Generator: Adobe Illustrator 25.2.1, SVG Export Plug-In . SVG Version: 6.00 Build 0)  -->
<svg version="1.1" xmlns="http://www.w3.org/2000/svg" xmlns:xlink="http://www.w3.org/1999/xlink" x="0px" y="0px"
	 viewBox="0 0 24 24" style="enable-background:new 0 0 24 24;" xml:space="preserve">

<g>
	<path d="M7.8,11.6c-0.7-1.5-2.2-4.2-5.5-9.4c5.5,3.5,8.1,4.9,9.4,5.5c-0.1,1.3-0.1,2.6,0,3.8c-0.5-0.1-1.1-0.1-1.6-0.1
		C9.3,11.5,8.5,11.6,7.8,11.6z"/>
	<polygon points="22,3.9 22,22 4,22 17.1,17.1 		"/>
	<path d="M2,14.4c0.1-0.1,2.1-0.9,4.9-1.3c1.8-0.3,3.9-0.4,6.2,0c-0.4-2.2-0.3-4.4,0-6.2v0c0.4-2.8,1.3-4.8,1.3-4.9
		c1.3,6.4,3.9,8,3.9,8L16,16l-6,2.2C10,18.3,8.4,15.6,2,14.4z"/>
</g>
</svg>
