<?xml version="1.0" encoding="utf-8"?>
<!-- Generator: Adobe Illustrator 25.2.1, SVG Export Plug-In . SVG Version: 6.00 Build 0)  -->
<svg version="1.1" id="Layer_1" xmlns="http://www.w3.org/2000/svg" xmlns:xlink="http://www.w3.org/1999/xlink" x="0px" y="0px"
	 viewBox="0 0 44 24" enable-background="new 0 0 44 24" xml:space="preserve">
<g id="Layer_1_1_">
	<g>
		<path d="M20,22c-0.3-0.2-0.3-0.4,0-0.7c0.4-0.4,0.9-0.9,1.3-1.3l0.1-0.1c0.2-0.1,0.4-0.1,0.5,0s0.2,0.4,0,0.5
			c-0.6,0.6-1.1,1.1-1.7,1.7C20.1,22,20.1,22,20,22z"/>
		<path d="M16.7,15.1c-0.2,0.2-0.4,0.4-0.6,0.6c0-0.1-0.1-0.1-0.1-0.2c-2.7-2.7-5.4-5.4-8.2-8.2c0,0,0-0.1-0.1-0.1
			c-0.2-0.1-0.3-0.1-0.5,0c-0.1,0.1-0.1,0.3,0,0.5c0,0.1,0.1,0.1,0.2,0.2c2.7,2.7,5.4,5.4,8.2,8.2c0,0,0.1,0.1,0.2,0.1
			c-0.2,0.2-0.4,0.4-0.6,0.6c-0.3-0.2-0.6-0.4-1-0.5c-0.2-0.1-0.4-0.2-0.7-0.2c-0.2,0-0.4-0.1-0.6-0.3C9.7,12.9,6.6,9.9,3.4,7
			C3.3,6.8,3.2,6.6,3.2,6.5C2.8,5.2,2.4,3.9,2,2.6c0-0.2,0-0.4,0.1-0.5C2.2,2,2.4,2,2.5,2c1.3,0.4,2.6,0.8,4,1.2
			c0.1,0,0.3,0.1,0.4,0.2c3,3.2,5.9,6.4,8.9,9.6c0.1,0.1,0.1,0.2,0.1,0.3C16,13.9,16.3,14.5,16.7,15.1C16.7,15,16.7,15.1,16.7,15.1z
			 M3.8,3.4C3.7,3.5,3.6,3.6,3.5,3.7C3.4,3.8,3.5,4,3.6,4.1C4.3,4.8,5,5.5,5.7,6.3c0.2,0.2,0.4,0.2,0.5,0c0.1-0.1,0.1-0.4,0-0.5
			C5.5,5,4.8,4.3,4.1,3.6C4,3.5,3.9,3.5,3.8,3.4z"/>
		<path d="M4.2,8.6C5,9.3,5.7,10,6.5,10.7c2.1,1.9,4.1,3.8,6.2,5.7c0.1,0.1,0.2,0.1,0.4,0.2c0.6,0.1,1.1,0.3,1.5,0.7
			c-0.2,0.2-0.4,0.4-0.7,0.7c-0.4,0.4-0.4,0.8,0,1.2c0.3,0.3,0.4,0.4,0.1,0.8c-0.5,1-1.4,1.7-2.5,2c-0.4,0.1-0.6-0.1-0.5-0.5
			c0.1-0.6,0.1-1.1-0.2-1.6C10.3,18.9,9,18.4,8,19c-0.3,0.2-0.6,0.5-0.9,0.7c-0.1,0.1-0.2,0.2-0.4,0.2c-0.2,0-0.3-0.2-0.3-0.4
			c-0.2-0.7-0.1-1.4,0.5-1.9c0.3-0.3,0.6-0.6,0.9-0.8c0.3-0.3,0.6-0.6,0.8-1.1C8.8,15,8.5,14.3,7.8,14s-1.3-0.2-2,0
			c-0.2,0.1-0.5,0.2-0.7,0.3c-0.3,0.1-0.6,0.2-0.9,0.2c-0.2,0-0.3,0-0.4-0.2c-0.1-0.1-0.1-0.3,0-0.4c0.3-0.6,0.4-1.1,0.3-1.8
			c-0.2-0.8-0.8-1.3-1.6-1.5c-0.2,0-0.4-0.1-0.4-0.3c0-0.3,0.1-0.4,0.2-0.5C2.5,9.6,2.8,9.5,3,9.4C3.5,9.2,3.9,9,4.2,8.6z"/>
		<path d="M17.3,14.6c-0.4-0.4-0.6-1-0.7-1.5c0-0.1-0.1-0.3-0.2-0.4c-2.6-2.8-5.2-5.6-7.8-8.4L8.5,4.2l0.1-0.1
			C8.8,3.8,9,3.5,9.2,3.2s0.4-0.7,0.6-1C9.9,2.1,10,2,10.2,2.1c0.2,0,0.2,0.2,0.3,0.3c0.2,1.2,1.1,1.9,2.3,1.7
			c0.3-0.1,0.6-0.2,0.9-0.3c0.2-0.1,0.3-0.1,0.4,0c0.1,0.1,0.2,0.2,0.1,0.4c-0.1,0.3-0.2,0.7-0.3,1c-0.3,0.7-0.4,1.4-0.3,2.1
			c0.2,0.8,0.8,1.3,1.5,1.2c0.4,0,0.8-0.2,1.1-0.5s0.6-0.6,0.8-0.9c0.3-0.3,0.7-0.6,1.1-0.8c0.4-0.1,0.8,0,1.2,0.1
			c0.3,0.1,0.3,0.4,0.1,0.6c-0.2,0.2-0.4,0.4-0.6,0.7c-0.7,1-0.5,2.4,0.6,3c0.5,0.3,1.1,0.3,1.8,0.2c0.4-0.1,0.6,0.1,0.5,0.5
			c-0.3,1.2-1.1,2.1-2.3,2.6c-0.1,0-0.2,0-0.3-0.1c-0.1-0.1-0.2-0.2-0.3-0.3c-0.3-0.3-0.7-0.3-1.1,0C17.8,14.1,17.5,14.3,17.3,14.6z
			"/>
		<path d="M19.2,15.1c-0.1,0.1-0.2,0.3-0.2,0.3c-1.1,1.1-2.2,2.2-3.3,3.3c-0.1,0.1-0.2,0.2-0.3,0.3c-0.2,0.1-0.4,0.1-0.5,0
			c-0.5-0.4-0.5-0.5,0-1c1.1-1.1,2.3-2.3,3.4-3.4c0.3-0.3,0.4-0.3,0.7,0C19,14.8,19.1,14.9,19.2,15.1z"/>
		<path d="M18.3,19.3c0.3-0.3,0.7-0.7,1-1c0.4,0.4,0.9,0.9,1.3,1.3c-0.3,0.3-0.6,0.6-1,1C19.2,20.1,18.7,19.7,18.3,19.3z"/>
		<path d="M16.3,19.1c0.9-0.9,1.7-1.7,2.6-2.6c0.1,0.1,0.2,0.2,0.3,0.3c0.1,0.1,0.1,0.3,0,0.5c-0.7,0.7-1.4,1.4-2,2
			c-0.2,0.2-0.4,0.1-0.5,0C16.5,19.3,16.4,19.2,16.3,19.1z"/>
	</g>
</g>
<g id="Layer_3">
	<polygon points="32,17 32,19.2 29.1,19.2 29.1,22.1 26.9,22.1 26.9,19.2 24,19.2 24,17 26.9,17 26.9,14.1 29.1,14.1 29.1,17 	"/>
	<path d="M33,7.1v3h6v3h-3c-1.6,0-3,1.3-3,3v6h3h6v-3h-6v-3h3c1.6,0,3-1.4,3-3v-3c0-1.7-1.4-3-3-3C39,7.1,33,7.1,33,7.1z"/>
</g>
</svg>
