<?xml version="1.0" encoding="utf-8"?>
<!-- Generator: Adobe Illustrator 25.2.1, SVG Export Plug-In . SVG Version: 6.00 Build 0)  -->
<svg version="1.1" id="Layer_67" xmlns="http://www.w3.org/2000/svg" xmlns:xlink="http://www.w3.org/1999/xlink" x="0px" y="0px"
	 viewBox="0 0 24 24" style="enable-background:new 0 0 24 24;" xml:space="preserve">
<path d="M3,2v2h4v2H5C3.9,6,3,6.9,3,8v4h2h4v-2H5V8h2c1.1,0,2-0.9,2-2V4c0-1.1-0.9-2-2-2H3z"/>
<path d="M21,20v-1.5c0-0.8-0.7-1.5-1.5-1.5c0.8,0,1.5-0.7,1.5-1.5V14c0-1.1-0.9-2-2-2h-4v2h4v2h-2v2h2v2h-4v2h4
	C20.1,22,21,21.1,21,20"/>
<polyline points="5.8,21.6 4.2,20.4 18.2,2.4 19.8,3.6 5.8,21.6 "/>
</svg>
