<?xml version="1.0" encoding="utf-8"?>
<!-- Generator: Adobe Illustrator 25.2.1, SVG Export Plug-In . SVG Version: 6.00 Build 0)  -->
<svg version="1.1" id="Layer_9" xmlns="http://www.w3.org/2000/svg" xmlns:xlink="http://www.w3.org/1999/xlink" x="0px" y="0px"
	 viewBox="0 0 24 24" style="enable-background:new 0 0 24 24;" xml:space="preserve">
<g>
	<path d="M19.1,15.5c0,0.3-0.2,0.6-0.4,0.7l-6.2,3.5c-0.1,0.1-0.3,0.1-0.4,0.1s-0.3,0-0.4-0.1l-6.2-3.5c-0.3-0.1-0.4-0.4-0.4-0.7
		V8.5c0-0.3,0.2-0.6,0.4-0.7l6.2-3.5c0.1-0.1,0.3-0.1,0.4-0.1s0.3,0,0.4,0.1l6.2,3.5c0.3,0.1,0.4,0.4,0.4,0.7V15.5 M12,5.8L6.5,8.9
		v6.1l5.5,3.1l5.5-3.1V8.9L12,5.8z"/>
	<polygon points="4.2,9.8 4.2,14.2 2,12 2,12 	"/>
	<polygon points="19.8,14.2 19.8,9.8 22,12 22,12 	"/>
	<polygon points="10.2,4.2 6.3,6.4 7.2,3.4 7.2,3.4 	"/>
	<polygon points="17.7,6.4 13.9,4.2 16.8,3.4 16.8,3.4 	"/>
	<polygon points="10.2,19.8 6.3,17.6 7.2,20.6 7.2,20.6 	"/>
	<polygon points="17.7,17.6 13.8,19.8 16.8,20.6 16.8,20.6 	"/>
</g>
</svg>
