<?xml version="1.0" encoding="utf-8"?>
<!-- Generator: Adobe Illustrator 25.2.1, SVG Export Plug-In . SVG Version: 6.00 Build 0)  -->
<svg version="1.1" id="Layer_58" xmlns="http://www.w3.org/2000/svg" xmlns:xlink="http://www.w3.org/1999/xlink" x="0px" y="0px"
	 viewBox="0 0 24 24" style="enable-background:new 0 0 24 24;" xml:space="preserve">
<path d="M4.3,3.4C4.8,3,5.4,2.9,6,2.8c2-0.5,4-0.7,6.1-0.6c2,0,4,0.2,6,0.7c0.4,0.1,0.8,0.2,1.2,0.4c0.5,0.2,0.7,0.5,0.7,1
	c0,1.5,0,3,0,4.5c0,1.4,0,2.8-0.1,4.3c-0.3,4.2-3.2,7.8-7.3,8.9c-0.8,0.2-1.4,0-2.1-0.3c-4-1.5-6.4-5.2-6.4-9.4
	c0-2.8,0.1-5.5,0.1-8.3c0,0,0,0,0,0C4.2,3.7,4.3,3.6,4.3,3.4z M9.5,16.5C9.6,16.5,9.6,16.5,9.5,16.5c2.1,0.9,4.6,0.5,6.2-1
	c0.4-0.4,0.4-0.9,0.1-1.3c-0.3-0.4-0.9-0.4-1.3,0c-1.4,1.4-3.8,1.4-5.3,0c-0.4-0.4-0.9-0.4-1.3,0c-0.4,0.4-0.4,0.9,0,1.3
	C8.6,15.8,9.1,16.2,9.5,16.5z M10.8,9.8c0.2-0.3,0.1-0.7-0.1-1c-1-1.2-3.1-1.2-4.1,0C6.3,9.1,6.3,9.3,6.4,9.6
	c0.2,0.6,0.9,0.9,1.4,0.4C8.2,9.7,8.6,9.6,9,9.8c0.2,0.1,0.3,0.2,0.5,0.3C9.9,10.5,10.6,10.3,10.8,9.8z M16.8,10.3
	c0.4,0.2,0.9,0.1,1.1-0.2c0.3-0.3,0.2-0.8-0.1-1.1c-1.1-1.1-3-1.2-4.1,0c-0.4,0.5-0.3,1.2,0.3,1.4c0.3,0.1,0.6,0,0.9-0.2
	c0.6-0.5,1.1-0.5,1.7,0C16.7,10.2,16.8,10.2,16.8,10.3z"/>
</svg>
