<?xml version="1.0" encoding="utf-8"?>
<!-- Generator: Adobe Illustrator 25.2.1, SVG Export Plug-In . SVG Version: 6.00 Build 0)  -->
<svg version="1.1" id="Layer_1" xmlns="http://www.w3.org/2000/svg" xmlns:xlink="http://www.w3.org/1999/xlink" x="0px" y="0px"
	 viewBox="0 0 44 24" style="enable-background:new 0 0 44 24;" xml:space="preserve">
<g>
	<g>
		<path d="M4.5,13.7v0.2c0,1.4,0,2.8,0,4.2c0,0.1,0,0.2,0.2,0.2c1.5,0.6,3,1.3,4.6,1.9v-6.5C9.2,13.7,4.5,13.7,4.5,13.7z M19.7,13.8
			v-0.2H15v6.5c1.5-0.6,3-1.3,4.6-1.9c0.1-0.1,0.2-0.1,0.2-0.2C19.7,16.6,19.7,15.2,19.7,13.8z"/>
		<rect x="4.5" y="11.3" width="4.7" height="1.1"/>
		<rect x="14.9" y="11.3" width="4.7" height="1.1"/>
		<polygon points="4.5,5.5 10.2,5.5 10.2,7.3 7.5,7.3 7.5,8.4 9.2,8.4 9.2,10.1 4.5,10.1 		"/>
		<polygon points="19.7,5.5 19.7,10.1 14.9,10.1 14.9,8.4 16.8,8.4 16.8,7.3 13.9,7.3 13.9,5.5 		"/>
		<path d="M2.1,5.4c0.4,0,0.8,0,1.2,0c0,0.4,0,0.8,0,1.2c-0.4,0-0.8,0-1.2,0C2.1,6.2,2.1,5.8,2.1,5.4z"/>
		<path d="M4.4,3.1c0,0.4,0,0.8,0,1.1c-0.4,0-0.8,0-1.1,0c0-0.4,0-0.8,0-1.1C3.7,3.1,4,3.1,4.4,3.1z"/>
		<path d="M20.8,3.1c0,0.4,0,0.8,0,1.1c-0.4,0-0.8,0-1.2,0c0-0.4,0-0.8,0-1.1C20,3.1,20.5,3.1,20.8,3.1z"/>
		<path d="M20.8,6.6c0-0.4,0-0.8,0-1.1c0.4,0,0.8,0,1.1,0c0,0.4,0,0.8,0,1.1C21.7,6.6,21.2,6.6,20.8,6.6z"/>
	</g>
	<g>
		<path d="M11.4,2c0,1.7,0,3.5,0,5.3c0.4,0,0.8,0,1.2,0c0-1.8,0-3.5,0-5.3C12.2,2,11.9,2,11.4,2z"/>
		<path d="M11.4,22c0-4.5,0-9,0-13.6c-0.4,0-0.8,0-1.2,0c0,0.1,0,0.1,0,0.2c0,4.1,0,8.2,0,12.3c0,0.1,0,0.2,0.2,0.3
			C10.8,21.5,11.2,21.7,11.4,22z"/>
		<path d="M13.9,8.4c-0.4,0-0.8,0-1.2,0c0,4.5,0,9,0,13.6c0.4-0.3,0.7-0.6,1.1-0.8c0,0,0.1-0.1,0.1-0.2c0-0.7,0-1.4,0-2.1
			c0-3.4,0-6.8,0-10.2C13.9,8.6,13.9,8.5,13.9,8.4z"/>
	</g>
</g>
<path d="M42,20.2c-0.2-0.2-0.4-0.3-0.5-0.5c-1-1-1.9-1.9-2.9-2.9l-0.1-0.1c-0.6,0.6-1.2,1.2-1.7,1.7c0.5,0.5,1,1,1.5,1.5
	c-0.8,0.7-2,0.7-2.7,0c-0.3-0.3-0.6-0.6-0.9-0.9c1.7-1.7,3.5-3.5,5.2-5.2c-1.5-1.9-4.1-1.9-5.6-0.4C31.2,10.3,28,7.1,24.9,4
	c-0.3,0.3-0.5,0.5-0.8,0.8c3.1,3.1,6.3,6.3,9.4,9.4c-0.1,0.1-0.2,0.2-0.3,0.4c-1.1,1.5-1,3.5,0.3,4.9c0.4,0.4,0.7,0.7,1.1,1.1
	c1.2,1.2,2.8,1.3,4.2,0.4c0.1-0.1,0.1-0.1,0.2-0.1c0.4,0.4,0.9,0.9,1.3,1.3l0,0l0.1-0.1c0.4-0.4,0.9-0.9,1.3-1.3
	C41.8,20.5,41.9,20.4,42,20.2C42,20.3,42,20.3,42,20.2z"/>
</svg>
