<?xml version="1.0" encoding="utf-8"?>
<!-- Generator: Adobe Illustrator 25.2.1, SVG Export Plug-In . SVG Version: 6.00 Build 0)  -->
<svg version="1.1" id="Layer_1" xmlns="http://www.w3.org/2000/svg" xmlns:xlink="http://www.w3.org/1999/xlink" x="0px" y="0px"
	 viewBox="0 0 44 24" style="enable-background:new 0 0 44 24;" xml:space="preserve">
<g>
	<g>
		<path d="M4.5,13.7v0.2c0,1.4,0,2.8,0,4.2c0,0.1,0,0.2,0.2,0.2c1.5,0.6,3,1.3,4.6,1.9v-6.5C9.2,13.7,4.5,13.7,4.5,13.7z M19.7,13.8
			v-0.2H15v6.5c1.5-0.6,3-1.3,4.6-1.9c0.1-0.1,0.2-0.1,0.2-0.2C19.7,16.6,19.7,15.2,19.7,13.8z"/>
		<rect x="4.5" y="11.3" width="4.7" height="1.1"/>
		<rect x="14.9" y="11.3" width="4.7" height="1.1"/>
		<polygon points="4.5,5.5 10.2,5.5 10.2,7.3 7.5,7.3 7.5,8.4 9.2,8.4 9.2,10.1 4.5,10.1 		"/>
		<polygon points="19.7,5.5 19.7,10.1 14.9,10.1 14.9,8.4 16.8,8.4 16.8,7.3 13.9,7.3 13.9,5.5 		"/>
		<path d="M2.1,5.4c0.4,0,0.8,0,1.2,0c0,0.4,0,0.8,0,1.2c-0.4,0-0.8,0-1.2,0C2.1,6.2,2.1,5.8,2.1,5.4z"/>
		<path d="M4.4,3.1c0,0.4,0,0.8,0,1.1c-0.4,0-0.8,0-1.1,0c0-0.4,0-0.8,0-1.1C3.7,3.1,4,3.1,4.4,3.1z"/>
		<path d="M20.8,3.1c0,0.4,0,0.8,0,1.1c-0.4,0-0.8,0-1.2,0c0-0.4,0-0.8,0-1.1C20,3.1,20.5,3.1,20.8,3.1z"/>
		<path d="M20.8,6.6c0-0.4,0-0.8,0-1.1c0.4,0,0.8,0,1.1,0c0,0.4,0,0.8,0,1.1C21.7,6.6,21.2,6.6,20.8,6.6z"/>
	</g>
	<g>
		<path d="M11.4,2c0,1.7,0,3.5,0,5.3c0.4,0,0.8,0,1.2,0c0-1.8,0-3.5,0-5.3C12.2,2,11.9,2,11.4,2z"/>
		<path d="M11.4,22c0-4.5,0-9,0-13.6c-0.4,0-0.8,0-1.2,0c0,0.1,0,0.1,0,0.2c0,4.1,0,8.2,0,12.3c0,0.1,0,0.2,0.2,0.3
			C10.8,21.5,11.2,21.7,11.4,22z"/>
		<path d="M13.9,8.4c-0.4,0-0.8,0-1.2,0c0,4.5,0,9,0,13.6c0.4-0.3,0.7-0.6,1.1-0.8c0,0,0.1-0.1,0.1-0.2c0-0.7,0-1.4,0-2.1
			c0-3.4,0-6.8,0-10.2C13.9,8.6,13.9,8.5,13.9,8.4z"/>
	</g>
</g>
<g>
	<g>
		<path d="M42,12.6c-0.1-2-0.8-3.9-2.1-5.4c-0.1-0.1-0.2-0.1-0.2-0.1c-0.2,0-0.4,0-0.5,0c0,0,0,0-0.1,0c0-0.2,0-0.4,0-0.6
			c0-0.1,0-0.2-0.1-0.2c-1.4-1.2-3-2-4.9-2.2c-3.2-0.3-5.9,0.7-8,3.2c-1.2,1.3-1.8,2.9-2,4.7c0,0.2,0,0.3-0.1,0.5v1.1
			c0,0.3,0.1,0.7,0.1,1c0.4,2.3,1.6,4.1,3.4,5.6c0.1,0,0.2,0.1,0.3,0.1c0.2,0,0.4-0.1,0.5-0.1c0,0,0.1,0,0.2,0.1
			c0.1,0.2,0.2,0.3,0.2,0.5c0.1,0.2,0.2,0.3,0.4,0.4c1,0.5,2.1,0.8,3.2,0.9h0.1h1.1c0.3,0,0.7-0.1,1-0.1c2.7-0.5,4.8-1.9,6.2-4.3
			C41.7,16.1,42.1,14.4,42,12.6z M33,19.5c-3.6,0-6.5-2.9-6.4-6.5c0-3.6,2.9-6.5,6.5-6.5s6.5,2.9,6.4,6.5
			C39.5,16.6,36.5,19.5,33,19.5z"/>
		<path d="M33.5,13c0,0.3-0.2,0.5-0.5,0.5s-0.5-0.2-0.5-0.5s0.2-0.5,0.5-0.5S33.5,12.7,33.5,13z"/>
	</g>
	<g>
		<path d="M29.2,9.1v7.8c-1-1-1.6-2.4-1.6-3.9C27.5,11.5,28.2,10.1,29.2,9.1z"/>
		<path d="M32.5,7.6v3.8c0,0.1-0.1,0.1-0.1,0.1c-0.6,0.3-0.9,0.8-0.9,1.4c0,0.7,0.3,1.1,0.9,1.4c0.1,0,0.1,0.1,0.1,0.1v3.9
			c-0.8-0.1-1.6-0.3-2.2-0.7V8.3C30.9,7.9,31.7,7.7,32.5,7.6z"/>
		<path d="M33.5,11.4V7.6c0.2,0,0.5,0.1,0.7,0.1c0.5,0.1,1,0.3,1.4,0.5c0.1,0,0.1,0.1,0.1,0.2c0,0.8,0,1.5,0,2.3
			c0,0.1-0.1,0.2-0.1,0.2c-0.5,0.3-1,0.5-1.5,0.8c0,0-0.1,0-0.2,0l-0.1-0.1C33.6,11.6,33.5,11.5,33.5,11.4z"/>
		<path d="M35.8,17.5v0.3c-0.7,0.4-1.4,0.6-2.2,0.7v-3.9c0,0,0-0.1,0.1-0.1c0.8-0.4,1-1,1-1.8c0.4-0.2,0.8-0.4,1.2-0.6
			c0,0.1,0,0.1,0,0.2C35.8,14,35.8,15.7,35.8,17.5z"/>
		<path d="M38.5,13c0,1.5-0.6,2.9-1.6,3.9V9.1C37.8,10.1,38.5,11.5,38.5,13z"/>
	</g>
</g>
</svg>
