<?xml version="1.0" encoding="utf-8"?>
<!-- Generator: Adobe Illustrator 25.2.1, SVG Export Plug-In . SVG Version: 6.00 Build 0)  -->
<svg version="1.1" id="Layer_72" xmlns="http://www.w3.org/2000/svg" xmlns:xlink="http://www.w3.org/1999/xlink" x="0px" y="0px"
	 viewBox="0 0 24 24" style="enable-background:new 0 0 24 24;" xml:space="preserve">
<g>
	<path d="M4.4,13.7v0.2c0,1.4,0,2.8,0,4.2c0,0.1,0,0.2,0.2,0.2c1.5,0.6,3,1.3,4.6,1.9v-6.5H4.4z M19.6,13.8v-0.2h-4.7v6.5
		c1.5-0.6,3-1.3,4.6-1.9c0.1-0.1,0.2-0.1,0.2-0.2C19.6,16.6,19.6,15.2,19.6,13.8z"/>
	<rect x="4.4" y="11.3" width="4.7" height="1.1"/>
	<rect x="14.9" y="11.3" width="4.7" height="1.1"/>
	<polygon points="4.4,5.5 10.2,5.5 10.2,7.3 7.4,7.3 7.4,8.4 9.1,8.4 9.1,10.1 4.4,10.1 	"/>
	<polygon points="19.6,5.5 19.6,10.1 14.9,10.1 14.9,8.4 16.7,8.4 16.7,7.3 13.8,7.3 13.8,5.5 	"/>
	<path d="M2,5.4c0.4,0,0.8,0,1.2,0c0,0.4,0,0.8,0,1.2c-0.4,0-0.8,0-1.2,0C2,6.2,2,5.8,2,5.4z"/>
	<path d="M4.3,3.1c0,0.4,0,0.8,0,1.1c-0.4,0-0.8,0-1.1,0c0-0.4,0-0.8,0-1.1C3.6,3.1,3.9,3.1,4.3,3.1z"/>
	<path d="M20.8,3.1c0,0.4,0,0.8,0,1.1c-0.4,0-0.8,0-1.2,0c0-0.4,0-0.8,0-1.1C20,3.1,20.4,3.1,20.8,3.1z"/>
	<path d="M20.8,6.6c0-0.4,0-0.8,0-1.1c0.4,0,0.8,0,1.1,0c0,0.4,0,0.8,0,1.1C21.6,6.6,21.2,6.6,20.8,6.6z"/>
</g>
<g>
	<path d="M11.4,2c0,1.7,0,3.5,0,5.3c0.4,0,0.8,0,1.2,0c0-1.8,0-3.5,0-5.3C12.2,2,11.8,2,11.4,2z"/>
	<path d="M11.4,22c0-4.5,0-9,0-13.6c-0.4,0-0.8,0-1.2,0c0,0.1,0,0.1,0,0.2c0,4.1,0,8.2,0,12.3c0,0.1,0,0.2,0.2,0.3
		C10.7,21.5,11.1,21.7,11.4,22z"/>
	<path d="M13.8,8.4c-0.4,0-0.8,0-1.2,0c0,4.5,0,9,0,13.6c0.4-0.3,0.7-0.6,1.1-0.8c0,0,0.1-0.1,0.1-0.2c0-0.7,0-1.4,0-2.1
		c0-3.4,0-6.8,0-10.2C13.8,8.6,13.8,8.5,13.8,8.4z"/>
</g>
</svg>
