<?xml version="1.0" encoding="utf-8"?>
<!-- Generator: Adobe Illustrator 25.2.1, SVG Export Plug-In . SVG Version: 6.00 Build 0)  -->
<svg version="1.1" id="Layer_1" xmlns="http://www.w3.org/2000/svg" xmlns:xlink="http://www.w3.org/1999/xlink" x="0px" y="0px"
	 viewBox="0 0 42.3 24" style="enable-background:new 0 0 42.3 24;" xml:space="preserve">
<g>
	<path d="M22,18.1c-0.1,0-0.2,0-0.3,0c-2.1,0-4.3,0-6.4,0c-0.2,0-0.3-0.1-0.4-0.2c-3.2-4-6.4-8.1-9.7-12.1c0,0-0.1-0.1-0.1-0.2
		l4.4-3.5c0.4,0.4,0.8,0.8,1.1,1.3c0.4,0.7,0.7,1.4,1.1,2.2c0.2,0.4,0.5,0.8,0.8,1.1c0.4,0.5,0.8,0.5,1.4,0.1
		c0.2-0.1,0.3-0.3,0.5-0.4c0.1-0.1,0.3-0.3,0.4-0.5C14.9,6,15,6.2,15.2,6.3c0.4,0.4,0.9,0.9,1.3,1.3c0.1,0,0.1,0.1,0.1,0.2
		c0.2,0.7,0.3,1.5,0.5,2.2h-4.3v1.3h0.1c1.4,0,2.7,0,4.1,0c0.2,0,0.3,0.1,0.4,0.3c0,0.3,0.1,0.7,0.2,1H14V14h0.3c1.4,0,2.8,0,4.3,0
		c1.6,0,2.9,1,3.3,2.5c0,0.2,0.1,0.3,0.1,0.5V18.1L22,18.1z"/>
	<path d="M22,22c-0.1,0-0.2,0-0.3,0c-2.8,0-5.6,0-8.4,0c-0.1,0-0.3,0-0.3-0.2c-3.7-4.5-7.4-9-11-13.6c0,0-0.1,0-0.1-0.1l2-1.6
		C4,6.6,4,6.6,4,6.7c3.3,4.2,6.7,8.4,10,12.6c0.1,0.1,0.3,0.2,0.5,0.2c2.3,0,4.7,0,7,0c0.1,0,0.2,0,0.3,0L22,22z"/>
</g>
<g>
	<path d="M24,4v1.8h3.6v1.8h-1.8c-1,0-1.8,0.8-1.8,1.8V13h1.8h3.6v-1.8h-3.6V9.4h1.8c1,0,1.8-0.8,1.8-1.8V5.8c0-1-0.8-1.8-1.8-1.8
		H24z"/>
	<path d="M40.2,20.2v-1.3c0-0.7-0.6-1.3-1.3-1.3c0.7,0,1.3-0.6,1.3-1.3V15c0-1-0.8-1.8-1.8-1.8h-3.6V15h3.6v1.8h-1.8v1.8h1.8v1.8
		h-3.6V22h3.6C39.3,22,40.2,21.1,40.2,20.2"/>
	<polyline points="26.5,21.6 25.1,20.5 37.6,4.4 39.1,5.4 26.5,21.6 	"/>
</g>
</svg>
