<?xml version="1.0" encoding="utf-8"?>
<!-- Generator: Adobe Illustrator 25.2.1, SVG Export Plug-In . SVG Version: 6.00 Build 0)  -->
<svg version="1.1" id="Layer_1" xmlns="http://www.w3.org/2000/svg" xmlns:xlink="http://www.w3.org/1999/xlink" x="0px" y="0px"
	 viewBox="0 0 43.2 24" style="enable-background:new 0 0 43.2 24;" xml:space="preserve">
<g>
	<path d="M22,18.1c-0.1,0-0.2,0-0.3,0c-2.1,0-4.3,0-6.4,0c-0.2,0-0.3-0.1-0.4-0.2c-3.2-4-6.4-8.1-9.7-12.1c0,0-0.1-0.1-0.1-0.2
		l4.4-3.5c0.4,0.4,0.8,0.8,1.1,1.3c0.4,0.7,0.7,1.4,1.1,2.2c0.2,0.4,0.5,0.8,0.8,1.1c0.4,0.5,0.8,0.5,1.4,0.1
		c0.2-0.1,0.3-0.3,0.5-0.4c0.1-0.1,0.3-0.3,0.4-0.5C14.9,6,15,6.2,15.2,6.3c0.4,0.4,0.9,0.9,1.3,1.3c0.1,0,0.1,0.1,0.1,0.2
		c0.2,0.7,0.3,1.5,0.5,2.2h-4.3v1.3h0.1c1.4,0,2.7,0,4.1,0c0.2,0,0.3,0.1,0.4,0.3c0,0.3,0.1,0.7,0.2,1H14V14h0.3c1.4,0,2.8,0,4.3,0
		c1.6,0,2.9,1,3.3,2.5c0,0.2,0.1,0.3,0.1,0.5V18.1L22,18.1z"/>
	<path d="M22,22c-0.1,0-0.2,0-0.3,0c-2.8,0-5.6,0-8.4,0c-0.1,0-0.3,0-0.3-0.2c-3.7-4.5-7.4-9-11-13.6c0,0-0.1,0-0.1-0.1l2-1.6
		C4,6.6,4,6.6,4,6.7c3.3,4.2,6.7,8.4,10,12.6c0.1,0.1,0.3,0.2,0.5,0.2c2.3,0,4.7,0,7,0c0.1,0,0.2,0,0.3,0L22,22z"/>
</g>
<g id="Layer_8_1_">
	<path d="M27.9,6.8H26l9,9l1-0.9 M40.9,20.9l-0.8,0.8c-0.4,0.4-1,0.4-1.4,0l-3.1-3.1l-2.7,2.7l-1.4-1.4l1.4-1.4l-8.9-9V4.8h4.8
		l8.9,8.9l1.4-1.4l1.4,1.4l-2.7,2.7l3.1,3.1C41.3,19.9,41.3,20.5,40.9,20.9z"/>
</g>
</svg>
