<?xml version="1.0" encoding="utf-8"?>
<!-- Generator: Adobe Illustrator 25.2.1, SVG Export Plug-In . SVG Version: 6.00 Build 0)  -->
<svg version="1.1" id="Layer_75" xmlns="http://www.w3.org/2000/svg" xmlns:xlink="http://www.w3.org/1999/xlink" x="0px" y="0px"
	 viewBox="0 0 24 24" style="enable-background:new 0 0 24 24;" xml:space="preserve">
<path d="M2.2,19.7c0.1,0.2,0.2,0.3,0.3,0.7c0.4,0.4,1,1,1.4,1.4l0.1,0.1l0,0c0.4-0.4,1-1,1.4-1.4c0.1,0,0.1,0,0.2,0.1
	c1.5,1,3.3,0.9,4.6-0.4c0.4-0.4,0.8-0.8,1.2-1.2c1.4-1.5,1.5-3.7,0.3-5.3c-0.1-0.2-0.2-0.3-0.3-0.4C14.9,9.8,18.4,6.3,21.8,3
	c-0.3-0.3-0.5-0.5-0.9-0.9C17.5,5.5,14,8.9,10.6,12.3c-1.6-1.6-4.5-1.6-6.1,0.4c1.9,1.9,3.8,3.8,5.7,5.7c-0.3,0.3-0.7,0.7-1,1
	c-0.8,0.8-2.1,0.8-2.9,0c0.5-0.5,1.1-1.1,1.6-1.6c-0.5-0.5-1.2-1.2-1.9-1.9L6,16c-1.1,1.1-2.1,2.1-3.2,3.2
	C2.7,19.4,2.5,19.5,2.2,19.7C2.2,19.8,2.2,19.8,2.2,19.7z"/>
</svg>
