<?xml version="1.0" encoding="utf-8"?>
<!-- Generator: Adobe Illustrator 25.2.1, SVG Export Plug-In . SVG Version: 6.00 Build 0)  -->
<svg version="1.1" id="Layer_1" xmlns="http://www.w3.org/2000/svg" xmlns:xlink="http://www.w3.org/1999/xlink" x="0px" y="0px"
	 viewBox="0 0 44 24" style="enable-background:new 0 0 44 24;" xml:space="preserve">
<g>
	<path d="M12.4,22c0-0.8,0-1.6,0-2.4c0-0.1,0-0.2,0.2-0.3c2.9-1.6,4.7-3.9,5.5-7c0.2-0.8,0.3-1.7,0.3-2.6c0-1.1,0-2.2,0-3.3
		c0-0.1,0-0.2-0.2-0.2c-1.9-0.5-3.8-1-5.6-1.6c-0.1,0-0.2-0.1-0.2-0.3c0-0.7,0-1.4,0-2.1c0-0.1,0-0.1,0-0.2c0.4,0.1,0.7,0.2,1.1,0.3
		c2.4,0.6,4.7,1.4,7.1,2c0.1,0,0.2,0.1,0.2,0.2c0,1.8,0,3.6,0,5.4c-0.1,4-1.8,7.3-4.8,9.9c-1,0.8-2.1,1.5-3.3,2
		C12.5,21.9,12.5,21.9,12.4,22L12.4,22z"/>
	<path d="M11.2,22c-0.1-0.1-0.3-0.1-0.4-0.2c-3.5-1.6-5.9-4.3-7.2-7.9C3.2,12.5,3,11.2,3,9.7c0-1.7,0-3.3,0-5c0-0.2,0-0.2,0.2-0.3
		c2.5-0.7,5.2-1.6,7.9-2.3c0,0,0.1,0,0.2,0c0,0.1,0,0.1,0,0.2c0,0.7,0,1.4,0,2.1c0,0.2-0.1,0.2-0.2,0.2c-1.9,0.5-3.8,1-5.6,1.6
		c-0.1,0-0.1,0-0.1,0l0,0c0,1.5,0,2.9,0,4.4c0,2.4,1,4.5,2.6,6.4c0.8,0.9,1.9,1.7,3,2.3c0.1,0.1,0.2,0.1,0.2,0.3
		C11.2,20.3,11.2,21.2,11.2,22L11.2,22z"/>
	<path d="M6.5,10.9c1.3-0.3,2.5-0.7,3.8-1c0.5-0.1,0.9-0.3,1.5-0.4c0.1,0,0.2,0,0.2,0c1.7,0.5,3.4,0.9,5.1,1.5c0,0,0,0,0.1,0
		c-0.1,0.5-0.2,0.9-0.3,1.5c-0.7,2.7-2.4,4.7-4.9,5.9c-0.1,0-0.1,0.1-0.3,0c-2.8-1.5-4.5-3.9-5.1-7C6.5,11.2,6.5,11,6.5,10.9z"/>
	<path d="M17.2,9.6c-0.5-0.1-1-0.3-1.6-0.4c-1.2-0.3-2.4-0.7-3.6-1c-0.1,0-0.3,0-0.4,0c-1.7,0.4-3.3,0.9-5,1.4c-0.1,0-0.1,0-0.2,0
		c0-0.1,0-0.1,0-0.1c0-0.7,0-1.5,0-2.2c0-0.1,0-0.2,0.2-0.2c1.7-0.5,3.4-0.9,5.1-1.5c0.1,0,0.2,0,0.2,0C13.6,6.1,15.3,6.5,17,7
		c0.1,0,0.1,0,0.1,0.2C17.2,8,17.2,8.8,17.2,9.6C17.2,9.5,17.2,9.5,17.2,9.6z"/>
</g>
<g>
	<g id="Layer_11_1_">
		<g id="Layer_52_1_">
			<g>
				<path d="M36.1,11.9c-1.2,0.2-2.5,0.5-3.7,0.7c-0.2,0.1-0.4,0.1-0.5,0.3l-0.8-0.8c0.3-0.2,0.5-0.3,0.9-0.4
					c1.6-0.4,3.2-0.4,4.8-0.2v0.1C36.6,11.7,36.3,11.9,36.1,11.9z"/>
				<path d="M42,14.6V19c-0.6-0.7-1.2-1.3-1.8-2c-0.3-0.3-0.6-0.6-1.1-0.6C38.4,16.3,37.7,16,37,16h-2l-1.1-1.1c1-0.2,2-0.4,3.1-0.6
					c0.3,0,0.6-0.1,0.8-0.3c0.6-0.4,1.2-0.9,1.8-1.3c0.3-0.3,0.5-0.2,0.7,0C40.8,13.4,41.4,14,42,14.6z"/>
				<path d="M41.2,20.9c-0.2,0.2-0.4,0.5-0.5,0.7l-2.4-2.4v-0.1c-0.1-0.9-0.3-1.8-0.5-2.7c0.6,0.1,1.2,0.2,1.7,0.4
					c0.1,0,0.1,0.1,0.2,0.2c0.4,0.4,0.7,0.8,1.1,1.2c0.5,0.4,0.6,0.9,0.7,1.4C41.6,20.1,41.5,20.5,41.2,20.9z"/>
				<path d="M29.2,14.8c-0.4,1-1.4,1.8-2.5,1.8c-1.5,0-2.7-1.2-2.7-2.7c0-1.2,0.7-2.2,1.8-2.5L29.2,14.8z"/>
				<path d="M42,9.9v0.6c-0.1,0.2-0.2,0.4-0.5,0.5c-1.3,0.9-2.7,1.9-4,2.8c-0.2,0.2-0.4,0.3-0.6,0.3c-0.8,0.1-1.5,0.3-2.3,0.4
					c-0.3,0.1-0.5,0.2-0.8,0.2l-1.6-1.6c0.1-0.1,0.3-0.1,0.4-0.1c0.9-0.2,1.8-0.4,2.8-0.5c0.8-0.2,1.5-0.4,2.1-0.9l3-2.1
					c0.5-0.3,1.1-0.3,1.4,0.2C41.9,9.7,42,9.8,42,9.9z"/>
				<path d="M35.8,11.2c0.3,0,0.6,0,0.8,0.1c0.5,0.1,0.8,0,1.2-0.3c0.6-0.5,1.2-0.9,1.8-1.3c-0.3-0.4-0.8-0.6-1.2-0.3
					C37.6,10,36.7,10.6,35.8,11.2z"/>
				<path d="M27.6,7.3c0,0.2-0.2,0.3-0.4,0.3h-0.6L26,7h1.2C27.5,6.9,27.6,7.1,27.6,7.3z"/>
				<path d="M40,7.3c-0.1-0.1-0.1-0.2-0.2-0.2c-0.1,0-0.3,0-0.4,0.1c0,0.1,0.1,0.2,0.1,0.2C39.6,7.4,39.8,7.4,40,7.3
					C39.9,7.3,40,7.3,40,7.3z"/>
				<path d="M34.5,7.4c0.2,0,0.4,0,0.6,0c0,0,0-0.1,0.1-0.1C35.1,7.2,35,7.1,35,7.1C34.8,7.1,34.6,7,34.5,7.4z"/>
				<path d="M34,7.3c-0.1-0.1-0.1-0.1-0.2-0.2c-0.1,0-0.3,0-0.4,0.1c0,0.1,0.1,0.2,0.1,0.2C33.6,7.4,33.8,7.4,34,7.3
					C33.9,7.3,34,7.3,34,7.3z"/>
				<path d="M28.6,7.3c0.2,0,0.4,0,0.6,0V7.2c-0.1,0-0.2-0.1-0.3-0.1C28.8,7.1,28.5,7,28.6,7.3z"/>
				<path d="M41.1,7.4c0.1-0.3-0.2-0.2-0.3-0.2s-0.3-0.1-0.3,0.2C40.8,7.4,40.9,7.4,41.1,7.4z"/>
				<path d="M38.8,7.3c-0.1-0.1-0.1-0.2-0.2-0.1c-0.2,0-0.4-0.1-0.4,0.2C38.3,7.3,38.5,7.3,38.8,7.3C38.7,7.3,38.7,7.3,38.8,7.3z"/>
				<path d="M36.9,7.4c0.2,0,0.4,0,0.7,0c-0.1-0.1-0.2-0.2-0.2-0.2C37.2,7.2,37,7,36.9,7.4z"/>
				<path d="M35.8,7.4c0.2,0,0.4,0,0.5,0c0.1-0.3-0.1-0.2-0.2-0.2C35.9,7.1,35.7,7,35.8,7.4z"/>
				<path d="M32.2,7.4c0.2,0,0.4,0,0.6,0c0,0,0,0,0.1-0.1c-0.1-0.1-0.1-0.2-0.2-0.1C32.4,7.2,32.2,7,32.2,7.4z"/>
				<path d="M31.5,7.4c0-0.4-0.2-0.2-0.4-0.2c0-0.1-0.1,0-0.2,0.1v0.1C31.2,7.4,31.3,7.4,31.5,7.4z"/>
				<path d="M29.8,7.4c0.2,0,0.4,0,0.5,0c0.1-0.3-0.1-0.3-0.3-0.3C29.9,7.1,29.7,7.1,29.8,7.4z"/>
				<path d="M42,7.2v0.2h-0.2c0-0.1-0.1-0.1-0.1-0.1C41.8,7.3,41.9,7.2,42,7.2z"/>
			</g>
		</g>
	</g>
	<polygon id="no_2_" points="38.6,22 36,22 24,10 24,8 24.3,7.7 	"/>
</g>
</svg>
