<?xml version="1.0" encoding="utf-8"?>
<!-- Generator: Adobe Illustrator 25.2.1, SVG Export Plug-In . SVG Version: 6.00 Build 0)  -->
<svg version="1.1" id="Layer_1" xmlns="http://www.w3.org/2000/svg" xmlns:xlink="http://www.w3.org/1999/xlink" x="0px" y="0px"
	 viewBox="0 0 44 24" style="enable-background:new 0 0 44 24;" xml:space="preserve">
<g>
	<path d="M12.4,22c0-0.8,0-1.6,0-2.4c0-0.1,0-0.2,0.2-0.3c2.9-1.6,4.7-3.9,5.5-7c0.2-0.8,0.3-1.7,0.3-2.6c0-1.1,0-2.2,0-3.3
		c0-0.1,0-0.2-0.2-0.2c-1.9-0.5-3.8-1-5.6-1.6c-0.1,0-0.2-0.1-0.2-0.3c0-0.7,0-1.4,0-2.1c0-0.1,0-0.1,0-0.2c0.4,0.1,0.7,0.2,1.1,0.3
		c2.4,0.6,4.7,1.4,7.1,2c0.1,0,0.2,0.1,0.2,0.2c0,1.8,0,3.6,0,5.4c-0.1,4-1.8,7.3-4.8,9.9c-1,0.8-2.1,1.5-3.3,2
		C12.5,21.9,12.5,21.9,12.4,22L12.4,22z"/>
	<path d="M11.2,22c-0.1-0.1-0.3-0.1-0.4-0.2c-3.5-1.6-5.9-4.3-7.2-7.9C3.2,12.5,3,11.2,3,9.7c0-1.7,0-3.3,0-5c0-0.2,0-0.2,0.2-0.3
		c2.5-0.7,5.2-1.6,7.9-2.3c0,0,0.1,0,0.2,0c0,0.1,0,0.1,0,0.2c0,0.7,0,1.4,0,2.1c0,0.2-0.1,0.2-0.2,0.2c-1.9,0.5-3.8,1-5.6,1.6
		c-0.1,0-0.1,0-0.1,0l0,0c0,1.5,0,2.9,0,4.4c0,2.4,1,4.5,2.6,6.4c0.8,0.9,1.9,1.7,3,2.3c0.1,0.1,0.2,0.1,0.2,0.3
		C11.2,20.3,11.2,21.2,11.2,22L11.2,22z"/>
	<path d="M6.5,10.9c1.3-0.3,2.5-0.7,3.8-1c0.5-0.1,0.9-0.3,1.5-0.4c0.1,0,0.2,0,0.2,0c1.7,0.5,3.4,0.9,5.1,1.5c0,0,0,0,0.1,0
		c-0.1,0.5-0.2,0.9-0.3,1.5c-0.7,2.7-2.4,4.7-4.9,5.9c-0.1,0-0.1,0.1-0.3,0c-2.8-1.5-4.5-3.9-5.1-7C6.5,11.2,6.5,11,6.5,10.9z"/>
	<path d="M17.2,9.6c-0.5-0.1-1-0.3-1.6-0.4c-1.2-0.3-2.4-0.7-3.6-1c-0.1,0-0.3,0-0.4,0c-1.7,0.4-3.3,0.9-5,1.4c-0.1,0-0.1,0-0.2,0
		c0-0.1,0-0.1,0-0.1c0-0.7,0-1.5,0-2.2c0-0.1,0-0.2,0.2-0.2c1.7-0.5,3.4-0.9,5.1-1.5c0.1,0,0.2,0,0.2,0C13.6,6.1,15.3,6.5,17,7
		c0.1,0,0.1,0,0.1,0.2C17.2,8,17.2,8.8,17.2,9.6C17.2,9.5,17.2,9.5,17.2,9.6z"/>
</g>
<g>
	<g>
		<path d="M42,12.6c-0.1-2-0.8-3.9-2.1-5.4c-0.1-0.1-0.2-0.1-0.2-0.1c-0.2,0-0.4,0-0.5,0c0,0,0,0-0.1,0c0-0.2,0-0.4,0-0.6
			c0-0.1,0-0.2-0.1-0.2c-1.4-1.2-3-2-4.9-2.2c-3.2-0.3-5.9,0.7-8,3.2c-1.2,1.3-1.8,2.9-2,4.7c0,0.2,0,0.3-0.1,0.5v1.1
			c0,0.3,0.1,0.7,0.1,1c0.4,2.3,1.6,4.1,3.4,5.6c0.1,0,0.2,0.1,0.3,0.1c0.2,0,0.4-0.1,0.5-0.1c0,0,0.1,0,0.2,0.1
			c0.1,0.2,0.2,0.3,0.2,0.5c0.1,0.2,0.2,0.3,0.4,0.4c1,0.5,2.1,0.8,3.2,0.9h0.1h1.1c0.3,0,0.7-0.1,1-0.1c2.7-0.5,4.8-1.9,6.2-4.3
			C41.7,16.1,42.1,14.4,42,12.6z M33,19.5c-3.6,0-6.5-2.9-6.4-6.5c0-3.6,2.9-6.5,6.5-6.5s6.5,2.9,6.4,6.5
			C39.5,16.6,36.5,19.5,33,19.5z"/>
		<path d="M33.5,13c0,0.3-0.2,0.5-0.5,0.5s-0.5-0.2-0.5-0.5s0.2-0.5,0.5-0.5S33.5,12.7,33.5,13z"/>
	</g>
	<g>
		<path d="M29.2,9.1v7.8c-1-1-1.6-2.4-1.6-3.9C27.5,11.5,28.2,10.1,29.2,9.1z"/>
		<path d="M32.5,7.6v3.8c0,0.1-0.1,0.1-0.1,0.1c-0.6,0.3-0.9,0.8-0.9,1.4c0,0.7,0.3,1.1,0.9,1.4c0.1,0,0.1,0.1,0.1,0.1v3.9
			c-0.8-0.1-1.6-0.3-2.2-0.7V8.3C30.9,7.9,31.7,7.7,32.5,7.6z"/>
		<path d="M33.5,11.4V7.6c0.2,0,0.5,0.1,0.7,0.1c0.5,0.1,1,0.3,1.4,0.5c0.1,0,0.1,0.1,0.1,0.2c0,0.8,0,1.5,0,2.3
			c0,0.1-0.1,0.2-0.1,0.2c-0.5,0.3-1,0.5-1.5,0.8c0,0-0.1,0-0.2,0l-0.1-0.1C33.6,11.6,33.5,11.5,33.5,11.4z"/>
		<path d="M35.8,17.5v0.3c-0.7,0.4-1.4,0.6-2.2,0.7v-3.9c0,0,0-0.1,0.1-0.1c0.8-0.4,1-1,1-1.8c0.4-0.2,0.8-0.4,1.2-0.6
			c0,0.1,0,0.1,0,0.2C35.8,14,35.8,15.7,35.8,17.5z"/>
		<path d="M38.5,13c0,1.5-0.6,2.9-1.6,3.9V9.1C37.8,10.1,38.5,11.5,38.5,13z"/>
	</g>
</g>
</svg>
