<?xml version="1.0" encoding="utf-8"?>
<!-- Generator: Adobe Illustrator 25.2.1, SVG Export Plug-In . SVG Version: 6.00 Build 0)  -->
<svg version="1.1" id="Layer_1" xmlns="http://www.w3.org/2000/svg" xmlns:xlink="http://www.w3.org/1999/xlink" x="0px" y="0px"
	 viewBox="0 0 44 24" style="enable-background:new 0 0 44 24;" xml:space="preserve">
<g>
	<path d="M12.4,22c0-0.8,0-1.6,0-2.4c0-0.1,0-0.2,0.2-0.3c2.9-1.6,4.7-3.9,5.5-7c0.2-0.8,0.3-1.7,0.3-2.6c0-1.1,0-2.2,0-3.3
		c0-0.1,0-0.2-0.2-0.2c-1.9-0.5-3.8-1-5.6-1.6c-0.1,0-0.2-0.1-0.2-0.3c0-0.7,0-1.4,0-2.1c0-0.1,0-0.1,0-0.2c0.4,0.1,0.7,0.2,1.1,0.3
		c2.4,0.6,4.7,1.4,7.1,2c0.1,0,0.2,0.1,0.2,0.2c0,1.8,0,3.6,0,5.4c-0.1,4-1.8,7.3-4.8,9.9c-1,0.8-2.1,1.5-3.3,2
		C12.5,21.9,12.5,21.9,12.4,22L12.4,22z"/>
	<path d="M11.2,22c-0.1-0.1-0.3-0.1-0.4-0.2c-3.5-1.6-5.9-4.3-7.2-7.9C3.2,12.5,3,11.2,3,9.7c0-1.7,0-3.3,0-5c0-0.2,0-0.2,0.2-0.3
		c2.5-0.7,5.2-1.6,7.9-2.3c0,0,0.1,0,0.2,0c0,0.1,0,0.1,0,0.2c0,0.7,0,1.4,0,2.1c0,0.2-0.1,0.2-0.2,0.2c-1.9,0.5-3.8,1-5.6,1.6
		c-0.1,0-0.1,0-0.1,0l0,0c0,1.5,0,2.9,0,4.4c0,2.4,1,4.5,2.6,6.4c0.8,0.9,1.9,1.7,3,2.3c0.1,0.1,0.2,0.1,0.2,0.3
		C11.2,20.3,11.2,21.2,11.2,22L11.2,22z"/>
	<path d="M6.5,10.9c1.3-0.3,2.5-0.7,3.8-1c0.5-0.1,0.9-0.3,1.5-0.4c0.1,0,0.2,0,0.2,0c1.7,0.5,3.4,0.9,5.1,1.5c0,0,0,0,0.1,0
		c-0.1,0.5-0.2,0.9-0.3,1.5c-0.7,2.7-2.4,4.7-4.9,5.9c-0.1,0-0.1,0.1-0.3,0c-2.8-1.5-4.5-3.9-5.1-7C6.5,11.2,6.5,11,6.5,10.9z"/>
	<path d="M17.2,9.6c-0.5-0.1-1-0.3-1.6-0.4c-1.2-0.3-2.4-0.7-3.6-1c-0.1,0-0.3,0-0.4,0c-1.7,0.4-3.3,0.9-5,1.4c-0.1,0-0.1,0-0.2,0
		c0-0.1,0-0.1,0-0.1c0-0.7,0-1.5,0-2.2c0-0.1,0-0.2,0.2-0.2c1.7-0.5,3.4-0.9,5.1-1.5c0.1,0,0.2,0,0.2,0C13.6,6.1,15.3,6.5,17,7
		c0.1,0,0.1,0,0.1,0.2C17.2,8,17.2,8.8,17.2,9.6C17.2,9.5,17.2,9.5,17.2,9.6z"/>
</g>
<g>
	<g>
		<g>
			<path d="M42,12.2c-0.1-1.9-0.8-3.7-2-5.1C39.9,7,39.8,7,39.8,7h-0.5c0,0,0,0-0.1,0V6.3c0-0.1,0-0.2-0.1-0.2
				C37.8,5,36.3,4.2,34.5,4c-2.4-0.3-4.5,0.3-6.2,1.7L30,7.5c1-0.8,2.2-1.1,3.6-1.1c3.4,0,6.2,2.7,6.1,6.2c0,1.3-0.4,2.5-1.1,3.5
				l1.7,1.7c0.2-0.3,0.3-0.5,0.5-0.8C41.6,15.4,42.1,13.9,42,12.2z M33.4,18.7c-3.4,0-6.2-2.7-6.1-6.2c0-1.1,0.3-2.1,0.8-3.1
				l-1.7-1.7c-0.9,1.1-1.3,2.4-1.5,3.9c0,0.2,0,0.3-0.1,0.4v1c0,0.3,0.1,0.7,0.1,0.9c0.3,2.1,1.5,3.9,3.3,5.3
				c0.1,0.1,0.2,0.2,0.3,0.2c0.2,0,0.3-0.1,0.5-0.1c0,0,0.1,0,0.2,0.1c0.1,0.2,0.2,0.3,0.2,0.4c0.1,0.2,0.2,0.3,0.3,0.3
				c0.9,0.5,2,0.8,3,0.9h1.1c0.3,0,0.7-0.1,0.9-0.1c1.3-0.3,2.5-0.7,3.5-1.5l-1.8-1.8C35.6,18.3,34.5,18.7,33.4,18.7z"/>
		</g>
		<g>
			<path d="M29.8,11.1v5.1c-0.9-1-1.5-2.3-1.5-3.8c-0.1-0.9,0.2-1.7,0.5-2.4L29.8,11.1z"/>
			<path d="M32.9,7.4v3.2l-2.1-2.1V8.1C31.5,7.7,32.1,7.5,32.9,7.4z"/>
			<path d="M30.9,12.2l2.1,2.1v3.3c-0.8-0.1-1.5-0.3-2.1-0.7V12.2z"/>
			<path d="M33.9,11V7.4c0.2,0,0.5,0.1,0.7,0.1C35.1,7.6,35.5,7.8,36,8c0,0,0,0.1,0,0.1c0,0.8,0,1.5,0,2.1c0,0.1-0.1,0.2-0.1,0.2
				c-0.5,0.3-0.9,0.5-1.5,0.8c0,0-0.1,0-0.2,0l-0.1-0.1C34,11.2,33.9,11.1,33.9,11z"/>
			<path d="M34,15.2l1.9,1.9c-0.6,0.3-1.2,0.5-1.9,0.6V15.2z"/>
			<path d="M36.2,11.6c0,0.1,0,0.1,0,0.2c-0.1,0.6-0.1,1.2-0.1,1.9L35,12.6c0-0.1,0-0.3,0-0.3C35.4,12.1,35.8,11.8,36.2,11.6z"/>
			<path d="M38.7,12.5c0,1-0.3,2.1-0.9,2.8l-0.7-0.7V8.8C38,9.8,38.7,11.1,38.7,12.5z"/>
		</g>
	</g>
	<path id="no" d="M40,22l1.1-1.1l-16-16L24,6L40,22z"/>
</g>
</svg>
