<?xml version="1.0" encoding="utf-8"?>
<!-- Generator: Adobe Illustrator 25.2.1, SVG Export Plug-In . SVG Version: 6.00 Build 0)  -->
<svg version="1.1" id="Layer_70" xmlns="http://www.w3.org/2000/svg" xmlns:xlink="http://www.w3.org/1999/xlink" x="0px" y="0px"
	 viewBox="0 0 24 24" style="enable-background:new 0 0 24 24;" xml:space="preserve">
<g>
	<path d="M2.1,11.4c0.1-0.4,0.1-0.7,0.2-1.1C2.7,8,3.7,6.1,5.5,4.6c1.4-1.3,3-2,4.9-2.4c2-0.3,3.9-0.1,5.7,0.8c0,0,0,0,0.1,0
		c0,0-0.1,0.1-0.1,0.1c-0.7,0.7-1.4,1.4-2.1,2.1c-0.1,0.1-0.2,0.1-0.3,0.1c-3.8-0.9-7.6,1.4-8.4,5.2c-0.1,0.4-0.2,0.7-0.5,0.9
		c-0.8,0.7-0.8,2-0.1,2.7c0.4,0.4,0.7,0.7,1.1,1.1c-0.7,0.7-1.4,1.4-2.1,2.1c-0.6-0.9-1.1-2-1.3-3.1c-0.1-0.5-0.2-1-0.2-1.5
		c0-0.1,0-0.1,0-0.2C2.1,12.2,2.1,11.8,2.1,11.4z"/>
	<path d="M11.4,21.9c-0.4-0.1-0.8-0.1-1.1-0.2c-1.3-0.2-2.6-0.7-3.7-1.5c0.7-0.7,1.4-1.4,2.1-2.1c0,0,0.1,0.1,0.1,0.1
		c0.3,0.3,0.6,0.6,0.9,0.9c0.9,0.9,2.3,0.7,3-0.3c0-0.1,0.1-0.1,0.2-0.1c2.9-0.4,5.2-2.6,5.8-5.5c0.2-1,0.2-1.9-0.1-2.9
		c0-0.1,0-0.2,0.1-0.3c0.7-0.7,1.4-1.4,2.1-2.1c0,0,0.1-0.1,0.2-0.2c0.2,0.5,0.4,0.9,0.5,1.4c1.6,5.4-1.6,11.1-7.1,12.5
		c-0.5,0.1-1.1,0.2-1.6,0.3c-0.1,0-0.1,0-0.2,0C12.2,21.9,11.8,21.9,11.4,21.9z"/>
	<path d="M2.1,19.5c0.1-0.2,0.2-0.3,0.4-0.3c0.5-0.1,0.9-0.3,1.4-0.5c0.2-0.1,0.3-0.2,0.4-0.3c0.7-0.7,1.5-1.4,2.2-2.2
		c0,0,0.1-0.1,0.1-0.1c0.4,0.4,0.8,0.8,1.2,1.2c0,0-0.1,0.1-0.1,0.1c-0.7,0.7-1.5,1.5-2.2,2.2c-0.1,0.1-0.2,0.3-0.3,0.4
		C5,20.5,4.9,21,4.7,21.5c-0.1,0.2-0.1,0.3-0.3,0.4c-0.1,0-0.2,0-0.2,0c-0.2-0.2-0.4-0.4-0.7-0.6c-0.5-0.5-0.9-1-1.4-1.5
		C2.1,19.7,2.1,19.6,2.1,19.5z"/>
	<path d="M11.6,15.5c-0.1-0.1-0.2-0.2-0.3-0.4c0,0,0-0.1-0.1-0.2c0-0.4,0-0.8,0-1.3c0-0.1,0.1-0.2,0.1-0.2c1.5-1.5,3-3,4.5-4.5
		c0.9-0.9,1.9-1.9,2.8-2.8c0.1-0.1,0.2-0.3,0.2-0.5c0-0.2-0.1-0.4-0.3-0.5c-0.2-0.1-0.4-0.1-0.6,0c-0.1,0-0.1,0.1-0.2,0.2
		c-2.4,2.4-4.8,4.8-7.2,7.2c-0.1,0.1-0.2,0.2-0.4,0.2c-0.3,0-0.7,0-1,0c-0.2,0-0.3,0-0.4-0.2c-0.1-0.1-0.2-0.1-0.3-0.3
		c0.1-0.1,0.2-0.1,0.2-0.2c3.3-3.3,6.6-6.6,9.8-9.8c0.2-0.2,0.4-0.3,0.6-0.3c0.7,0,1.4,0,2.1,0c0.4,0,0.6,0.2,0.6,0.6
		c0,0.7,0,1.4,0,2.2c0,0.2-0.1,0.4-0.2,0.5C18.3,8.8,15,12.1,11.6,15.5C11.7,15.4,11.6,15.5,11.6,15.5z"/>
	<path d="M10,13.9c0,0.3,0,0.5,0,0.8c0,1-0.1,0.8,0.6,1.4c0.3,0.4,0.7,0.7,1,1.1c0.3,0.3,0.3,0.6,0.2,0.9c-0.1,0.3-0.4,0.5-0.8,0.5
		c-0.2,0-0.4-0.1-0.6-0.3c-1.5-1.5-3.1-3.1-4.6-4.6c-0.1-0.1-0.2-0.2-0.2-0.2c-0.3-0.4-0.3-0.9,0-1.2c0.3-0.3,0.8-0.3,1.2,0
		c0.5,0.5,0.9,0.9,1.4,1.4c0.2,0.2,0.4,0.3,0.6,0.2C9.2,13.9,9.6,13.9,10,13.9z"/>
	<path d="M7.6,11.5c-0.3-0.3-0.7-0.5-1.2-0.6C6.9,8,9.8,5.8,12.8,6.3C11.1,8.1,9.4,9.8,7.6,11.5z"/>
	<path d="M13.1,17.6c-0.1-0.5-0.3-0.9-0.6-1.2c1.7-1.7,3.5-3.5,5.2-5.2C18.2,13.9,16.1,17,13.1,17.6z"/>
</g>
</svg>
