<?xml version="1.0" encoding="utf-8"?>
<!-- Generator: Adobe Illustrator 25.2.1, SVG Export Plug-In . SVG Version: 6.00 Build 0)  -->
<svg version="1.1" id="Layer_1" xmlns="http://www.w3.org/2000/svg" xmlns:xlink="http://www.w3.org/1999/xlink" x="0px" y="0px"
	 viewBox="0 0 44 24" enable-background="new 0 0 44 24" xml:space="preserve">
<g id="Layer_9">
	<g>
		<path d="M22.2,3.9c-0.1,0.4-0.2,0.7-0.5,0.9c-0.3,0.3-0.8,0.4-1.2,0.3c-0.1,0-0.2,0-0.2,0.1C20.1,5.6,20,6,19.8,6.3
			c-0.1,0.2-0.2,0.4-0.4,0.5C19.2,7,19.1,7.1,19,7.1l1.1,1.1c-0.3,0.3-0.6,0.6-0.9,0.8l-1.1-1.1L17,9c0.2,0.1,0.4,0.3,0.7,0.4
			c0.1,0.1,0.1,0.1,0.1,0.2c0,2-0.2,3.9-0.9,5.8c0,0.1,0,0.2,0.1,0.3c1.3,1.3,2.6,2.5,3.8,3.8c0.1,0.1,0.1,0.2,0.1,0.3
			c-0.1,0.4-0.1,0.8-0.1,1.2c-0.4,0-0.9,0.1-1.3,0.1c-0.1,0-0.2-0.1-0.2-0.1c-1.1-1.1-2.1-2.1-3.2-3.2c0,0-0.1-0.1-0.2-0.2
			c-0.9,1.5-1.9,2.9-3.3,4c0-0.1,0-0.1,0-0.2c0-1.3,0-2.7,0-4c0-0.1,0-0.2,0.1-0.3c1.1-1.6,1.7-3.4,1.9-5.3c0-0.2,0.1-0.5,0.1-0.7
			c-0.4-0.1-0.7-0.2-1.1-0.3c-0.4-0.1-0.7-0.2-1.1-0.2v-3c0.5,0.1,1,0.2,1.6,0.3c0.2,0,0.4,0.1,0.6,0.2c0.1,0,0.2,0,0.2,0
			C15.4,7.6,16,7,16.5,6.5c-0.4-0.4-0.8-0.8-1.1-1.1l0.9-0.9l1,1.1l0.1-0.1c0.2-0.3,0.5-0.5,0.8-0.6c0.4-0.1,0.8-0.3,1.2-0.5
			c-0.1-0.4-0.1-0.8,0.1-1.2c0.3-0.5,0.8-0.8,1.4-0.7c0.5,0,1,0.5,1.2,1c0,0.1,0,0.1,0.1,0.2V3.9z"/>
		<path d="M1.8,3.5C1.9,3.2,2,2.8,2.3,2.6C2.8,2.2,3.5,2.1,4,2.5C4.5,2.8,4.8,3.4,4.6,4c0,0.1,0,0.1,0,0.2C5,4.4,5.5,4.6,5.9,4.8
			C6.2,4.9,6.3,5,6.5,5.2c0.1,0.1,0.1,0.2,0.2,0.2l1.1-1.1l0.9,0.9L7.4,6.4c0.2,0.2,0.4,0.5,0.7,0.7C8.4,7.3,8.7,7.6,9,7.9
			C9.1,8,9.2,8,9.3,8c0.7-0.2,1.4-0.3,2.1-0.5v3.1c-0.3,0.1-0.7,0.1-1.1,0.2C10,11,9.7,11.1,9.4,11.2c-0.1,0-0.1,0.1-0.1,0.2
			c0.2,2.1,0.8,4.1,2,5.9c0,0.1,0.1,0.1,0.1,0.2c0,1.4,0,2.8,0,4.2l0,0c-1.4-1-2.4-2.4-3.3-3.9C8,17.9,8,18,7.9,18
			c-1.1,1.1-2.1,2.1-3.2,3.2c-0.1,0.1-0.2,0.1-0.3,0.1c-0.3,0-0.7-0.1-1-0.1c-0.1,0-0.2-0.1-0.2-0.2c0-0.3-0.1-0.6-0.1-1
			c0-0.1,0-0.3,0.1-0.3C4.5,18.4,5.7,17.2,7,16c0.1-0.1,0.1-0.2,0.1-0.4c-0.7-1.9-0.9-3.9-0.9-5.9c0-0.1,0-0.2,0.1-0.2
			C6.5,9.3,6.8,9.1,7,9L6,7.9L4.8,9.1L3.9,8.2c0.3-0.3,0.7-0.7,1.1-1L4.9,7.1C4.5,6.9,4.3,6.6,4.2,6.2c-0.1-0.3-0.3-0.7-0.4-1
			c0-0.1-0.1-0.1-0.2-0.1C2.7,5.3,2,4.9,1.8,4V3.9V3.5z"/>
		<path d="M10.6,12.1c0.9-0.3,1.9-0.3,2.8,0c-0.2,1.4-0.6,2.8-1.4,4.1C11.2,14.8,10.8,13.5,10.6,12.1z"/>
	</g>
</g>
<g id="Layer_12">
	<g id="Layer_40">
		<g>
			<path d="M38.5,18.2c1.2-0.3,2.3-0.7,3.5-1.1v1.6c-1,0.3-2,0.6-3,0.9c-0.5,0.1-0.9-0.1-1.1-0.5C37.8,18.8,38,18.3,38.5,18.2z"/>
			<path d="M42,14v2.8c-0.1-0.2-0.3-0.5-0.4-0.7c0,0,0,0-0.1,0c0.1,0.3,0.1,0.6,0.2,0.9c-0.3,0.1-0.6,0.2-0.8,0.2
				c-0.8,0.2-1.7,0.5-2.5,0.7c-0.5,0.2-0.8,0.6-0.8,1.1s0.4,0.9,0.9,0.9c0.2,0,0.4,0,0.6-0.1C40,19.5,41,19.3,42,19v3h-9.6
				c0.1-0.2,0.2-0.4,0.2-0.6c0.2-0.5,0.6-0.8,1.2-0.8c1,0,2-0.1,3.1-0.2c-0.4-1.5-0.8-3-1.2-4.5c-0.5,0-1,0.1-1.5,0.2
				c-0.3,0-0.7,0.1-1,0.1c-0.6,0-0.9-0.4-0.9-1c0-0.5,0.2-0.8,0.8-0.9c0.4-0.1,0.7-0.2,1.1-0.4v0.6c0.5,0,0.9-0.1,1.3-0.1
				c0.7,1.3,1.6,1.8,2.9,1.6c0.6-0.1,1.2-0.4,1.6-0.9s0.5-1.1,0.5-1.8c0.4,0.1,0.7,0.2,1,0.3C41.7,13.7,41.9,13.9,42,14z"/>
			<path d="M39.7,7.5c-0.4-0.2-0.7-0.3-1.1-0.3c-1,0-2,0-3.1,0.1h-0.1c0.1,0.4,0.2,0.8,0.3,1.2c-0.2,0.1-0.2,0-0.2-0.1
				c-0.2-1.1-0.5-2.2-0.7-3.2c-0.1-0.3-0.2-0.7-0.2-1h-0.2C34.6,5.1,34.8,6.1,35,7c0.1,0.6,0.3,1.2,0.4,1.7h-0.1
				c0-0.1-0.1-0.1-0.1-0.2c-0.2-0.4-0.3-0.8-0.4-1.2c-1.7,0.3-3.3,1-4.8,1.8c0.1,0.2,0.3,0.3,0.4,0.4c0,0,0,0.1,0,0.2
				c-0.1,0-0.1,0-0.2-0.1l-0.1-0.1c-0.9-1-1.8-2-2.7-2.9c-0.5-0.5-1.2-1-1.5-1.8c-0.1-0.3-0.3-0.5-0.4-0.7h-1c0,0.2,0,0.3,0.2,0.4
				c0.3,0.2,0.6,0.5,1,0.7c0.1,0.2,0.3,0.2,0.4,0.4c0.7,0.7,1.5,1.5,2.2,2.3c0.6,0.7,1.3,1.4,1.9,2c0,0-0.1,0.1-0.2,0.1
				c-0.2-0.1-0.4-0.3-0.6-0.6c-0.5,0.4-1,0.8-1.5,1.2c0.1,0.1,0.2,0.1,0.3,0.2c0.8,0.4,1.5,0.8,2.2,1.2c0.1,0.1,0.3,0.1,0.1,0.3
				c-1-0.6-2-1.1-3-1.7c-1-0.6-2.1-1-2.9-1.8c-0.1-0.2-0.4-0.4-0.6-0.6v1c0.2,0.1,0.5,0.2,0.7,0.2c0.2,0.1,0.4,0,0.5,0.1
				c1.3,0.7,2.7,1.5,4,2.2c0.4,0.2,0.8,0.5,1.2,0.7v0.1c-0.1,0-0.2,0-0.2,0c-1-0.4-1.8-0.9-2.7-1.4c-0.6,0.4-1.4,1.3-1.7,1.9
				c-0.4,0.9-0.2,1.6,0.8,1.9c0.1,0,0.2,0.1,0.4,0.1c0.9,0.2,1.8,0.1,2.8,0c2.5-0.4,4.9-1.3,7.1-2.7c1-0.6,2-1.3,2.8-2.2
				C40,9.8,40.2,9.4,40.4,9C40.5,8.3,40.3,7.8,39.7,7.5z M31.4,10c0.4-0.4,1-0.6,1.6-0.7h0.3c0.2,0,0.3,0.2,0.2,0.4
				s-0.3,0.3-0.4,0.4c-0.4,0.3-0.9,0.5-1.4,0.4c-0.1,0-0.3-0.1-0.3-0.1C31.2,10.2,31.3,10,31.4,10z M38.5,9.3
				c-0.2,0.5-0.5,0.8-0.8,1.2c-0.9,1-2,1.6-3.2,2.2c-1.5,0.7-3.1,1.2-4.8,1.3c-0.6,0-1.2,0-1.7-0.2c-0.4-0.1-0.7-0.3-0.8-0.7
				c0.6,0.5,1.3,0.5,2,0.5c1.5,0,3-0.5,4.4-1.1c1.3-0.6,2.6-1.3,3.7-2.3c0.1-0.2,0.3-0.3,0.4-0.5c0.3-0.4,0.6-0.8,0.6-1.4
				C38.6,8.6,38.6,9,38.5,9.3z"/>
			<path d="M40.2,13.4c0,1.4-1,2.4-2.2,2.5s-2.3-0.9-2.4-2.1c0-0.2,0-0.4,0.3-0.5c0.9-0.6,1.9-1.1,2.8-1.7c0.2-0.1,0.3-0.1,0.4,0
				C39.8,12,40.2,12.7,40.2,13.4z"/>
		</g>
	</g>
</g>
</svg>
