<?xml version="1.0" encoding="utf-8"?>
<!-- Generator: Adobe Illustrator 25.2.1, SVG Export Plug-In . SVG Version: 6.00 Build 0)  -->
<svg version="1.1" id="Layer_58" xmlns="http://www.w3.org/2000/svg" xmlns:xlink="http://www.w3.org/1999/xlink" x="0px" y="0px"
	 viewBox="0 0 24 24" style="enable-background:new 0 0 24 24;" xml:space="preserve">
<path d="M14.7,2h-2.6l0.9,2.1l-0.8,0.4L11.2,2H8.5l2.3,5.2L16.1,5L14.7,2z M20.9,3.9L7,9.9l0.6,1.4l14-6L20.9,3.9z M17.4,8.9
	l-1.2,0.6c0.7,0.3,1.3,0.7,1.9,0.8C19,9.6,17.9,8.7,17.4,8.9z M15.6,11.6c0.5-0.2,1.1-0.4,1.4-0.8c-0.9-0.3-1.9-0.9-2.7-1.4
	l-1.8,0.8c-0.6,0.9-0.8,2.3-0.9,3.5c1,1.5,1.5,3.1,2,4.7c0.9-0.2,1.6-0.3,2.4-0.6c-1.2-2-2.1-3.9-2.7-6c0,0,0.3-0.5,0.4-0.8
	C14.4,11.5,15,11.8,15.6,11.6z M19,10.8c-0.5,0.3-1.2,0.6-1.6,1c-0.3,0.2-0.6,0.4-1,0.6c0,0.4,0,1,0.4,1c1-0.3,2-0.8,3-1.4
	C19.8,11.4,19.4,10.6,19,10.8z M17,16.1c-0.8-0.2-1.1-1.5-0.9-2.1c-0.5-0.3-0.7-0.9-0.7-1.4c-0.4,0-0.7,0-1-0.1
	c0.6,1.8,1.4,3.5,2.5,5.2c0.2-0.1,0.5-0.2,0.7-0.2C17.3,17.1,17,16.6,17,16.1z M19.7,13c-0.7,0.4-1.4,0.7-2.1,1l-0.5,0.2
	c-0.2,0.2-0.2,0.8,0,1c0.5,0.2,2.5-1.1,2.9-1.4C20.1,13.5,19.9,13,19.7,13z M10.7,14.1L2.4,16v6h6.1c1.6-0.7,3-1.5,4.5-2.5
	C12.4,17.6,11.9,15.7,10.7,14.1z M20.2,14.9c-0.7,0.5-1.4,0.8-2.2,1.1c0,0.3,0.1,0.9,0.6,0.8c1-0.2,1.8-0.9,1.8-1.2
	C20.5,15.4,20.3,15,20.2,14.9z M19.8,17.4c-0.7,0.4-1.6,0.8-2.4,1.1l0.9,1.6l2-1L19.8,17.4z M20.9,19.8l-2.2,1.1l0.2,1.1
	c0.8,0,2.3-0.6,2.8-1.3L20.9,19.8z"/>
</svg>
