<?xml version="1.0" encoding="utf-8"?>
<!-- Generator: Adobe Illustrator 25.2.1, SVG Export Plug-In . SVG Version: 6.00 Build 0)  -->
<svg version="1.1" id="Layer_1" xmlns="http://www.w3.org/2000/svg" xmlns:xlink="http://www.w3.org/1999/xlink" x="0px" y="0px"
	 viewBox="0 0 44 24" enable-background="new 0 0 44 24" xml:space="preserve">
<g id="Layer_9">
	<g>
		<path d="M22.2,3.9c-0.1,0.4-0.2,0.7-0.5,0.9c-0.3,0.3-0.8,0.4-1.2,0.3c-0.1,0-0.2,0-0.2,0.1C20.1,5.6,20,6,19.8,6.3
			c-0.1,0.2-0.2,0.4-0.4,0.5C19.2,7,19.1,7.1,19,7.1l1.1,1.1c-0.3,0.3-0.6,0.6-0.9,0.8l-1.1-1.1L17,9c0.2,0.1,0.4,0.3,0.7,0.4
			c0.1,0.1,0.1,0.1,0.1,0.2c0,2-0.2,3.9-0.9,5.8c0,0.1,0,0.2,0.1,0.3c1.3,1.3,2.6,2.5,3.8,3.8c0.1,0.1,0.1,0.2,0.1,0.3
			c-0.1,0.4-0.1,0.8-0.1,1.2c-0.4,0-0.9,0.1-1.3,0.1c-0.1,0-0.2-0.1-0.2-0.1c-1.1-1.1-2.1-2.1-3.2-3.2c0,0-0.1-0.1-0.2-0.2
			c-0.9,1.5-1.9,2.9-3.3,4c0-0.1,0-0.1,0-0.2c0-1.3,0-2.7,0-4c0-0.1,0-0.2,0.1-0.3c1.1-1.6,1.7-3.4,1.9-5.3c0-0.2,0.1-0.5,0.1-0.7
			c-0.4-0.1-0.7-0.2-1.1-0.3c-0.4-0.1-0.7-0.2-1.1-0.2v-3c0.5,0.1,1,0.2,1.6,0.3c0.2,0,0.4,0.1,0.6,0.2c0.1,0,0.2,0,0.2,0
			C15.4,7.6,16,7,16.5,6.5c-0.4-0.4-0.8-0.8-1.1-1.1l0.9-0.9l1,1.1l0.1-0.1c0.2-0.3,0.5-0.5,0.8-0.6c0.4-0.1,0.8-0.3,1.2-0.5
			c-0.1-0.4-0.1-0.8,0.1-1.2c0.3-0.5,0.8-0.8,1.4-0.7c0.5,0,1,0.5,1.2,1c0,0.1,0,0.1,0.1,0.2V3.9z"/>
		<path d="M1.8,3.5C1.9,3.2,2,2.8,2.3,2.6C2.8,2.2,3.5,2.1,4,2.5C4.5,2.8,4.8,3.4,4.6,4c0,0.1,0,0.1,0,0.2C5,4.4,5.5,4.6,5.9,4.8
			C6.2,4.9,6.3,5,6.5,5.2c0.1,0.1,0.1,0.2,0.2,0.2l1.1-1.1l0.9,0.9L7.4,6.4c0.2,0.2,0.4,0.5,0.7,0.7C8.4,7.3,8.7,7.6,9,7.9
			C9.1,8,9.2,8,9.3,8c0.7-0.2,1.4-0.3,2.1-0.5v3.1c-0.3,0.1-0.7,0.1-1.1,0.2C10,11,9.7,11.1,9.4,11.2c-0.1,0-0.1,0.1-0.1,0.2
			c0.2,2.1,0.8,4.1,2,5.9c0,0.1,0.1,0.1,0.1,0.2c0,1.4,0,2.8,0,4.2l0,0c-1.4-1-2.4-2.4-3.3-3.9C8,17.9,8,18,7.9,18
			c-1.1,1.1-2.1,2.1-3.2,3.2c-0.1,0.1-0.2,0.1-0.3,0.1c-0.3,0-0.7-0.1-1-0.1c-0.1,0-0.2-0.1-0.2-0.2c0-0.3-0.1-0.6-0.1-1
			c0-0.1,0-0.3,0.1-0.3C4.5,18.4,5.7,17.2,7,16c0.1-0.1,0.1-0.2,0.1-0.4c-0.7-1.9-0.9-3.9-0.9-5.9c0-0.1,0-0.2,0.1-0.2
			C6.5,9.3,6.8,9.1,7,9L6,7.9L4.8,9.1L3.9,8.2c0.3-0.3,0.7-0.7,1.1-1L4.9,7.1C4.5,6.9,4.3,6.6,4.2,6.2c-0.1-0.3-0.3-0.7-0.4-1
			c0-0.1-0.1-0.1-0.2-0.1C2.7,5.3,2,4.9,1.8,4V3.9V3.5z"/>
		<path d="M10.6,12.1c0.9-0.3,1.9-0.3,2.8,0c-0.2,1.4-0.6,2.8-1.4,4.1C11.2,14.8,10.8,13.5,10.6,12.1z"/>
	</g>
</g>
<g id="Layer_11">
	<g id="Layer_52">
		<g>
			<path d="M42,14.6V19c-0.6-0.7-1.2-1.3-1.8-2c-0.3-0.3-0.6-0.6-1.1-0.6C38.4,16.3,37.7,16,37,16h-4.5c-0.7,0-1.3-0.1-1.9-0.5
				c-0.5-0.4-0.8-0.9-0.6-1.6c0.2-1.2,1-1.9,2-2.2c1.6-0.4,3.2-0.4,4.8-0.2v0.1c-0.2,0.1-0.5,0.3-0.7,0.3c-1.2,0.2-2.5,0.5-3.7,0.7
				c-0.7,0.2-1.1,0.8-1,1.5s0.8,1.1,1.5,1c1.4-0.3,2.7-0.5,4.1-0.8c0.3,0,0.6-0.1,0.8-0.3c0.6-0.4,1.2-0.9,1.8-1.3
				c0.3-0.3,0.5-0.2,0.7,0C40.8,13.4,41.4,14,42,14.6z"/>
			<path d="M41.2,20.9c-0.3,0.4-0.6,0.8-0.9,1.2h-3.8c0.6-0.8,1.2-1.6,1.7-2.4c0.1-0.2,0.1-0.4,0.1-0.5c-0.1-0.9-0.3-1.8-0.5-2.7
				c0.6,0.1,1.2,0.2,1.7,0.4c0.1,0,0.1,0.1,0.2,0.2c0.4,0.4,0.7,0.8,1.1,1.2c0.5,0.4,0.6,0.9,0.7,1.4C41.6,20.1,41.5,20.5,41.2,20.9
				z"/>
			<path d="M29.4,13.9c0-1.5-1.2-2.7-2.7-2.7S24,12.4,24,13.9s1.2,2.7,2.7,2.7S29.4,15.4,29.4,13.9z"/>
			<path d="M42,9.9v0.6c-0.1,0.2-0.2,0.4-0.5,0.5c-1.3,0.9-2.7,1.9-4,2.8c-0.2,0.2-0.4,0.3-0.6,0.3c-0.8,0.1-1.5,0.3-2.3,0.4
				c-0.6,0.2-1.3,0.3-2,0.4h-0.3c-0.4-0.2-0.6-0.6-0.6-1c0-0.5,0.3-0.8,0.9-0.9c0.9-0.2,1.8-0.4,2.8-0.5c0.8-0.2,1.5-0.4,2.1-0.9
				c1-0.7,2-1.4,3-2.1c0.5-0.3,1.1-0.3,1.4,0.2C41.9,9.7,42,9.8,42,9.9z"/>
			<path d="M35.8,11.2c0.3,0,0.6,0,0.8,0.1c0.5,0.1,0.8,0,1.2-0.3c0.6-0.5,1.2-0.9,1.8-1.3c-0.3-0.4-0.8-0.6-1.2-0.3
				C37.6,10,36.7,10.6,35.8,11.2z"/>
			<path d="M25.3,7.4c0.2,0.1,0.3,0.2,0.5,0.2c0.5,0,0.9,0,1.4,0c0.2,0,0.4-0.1,0.4-0.3c0-0.2-0.1-0.4-0.4-0.3c-0.4,0-0.9,0-1.3,0
				c-0.2,0-0.4,0.1-0.5,0.2C25.3,7.2,25.3,7.3,25.3,7.4z"/>
			<path d="M40,7.3c-0.1-0.1-0.1-0.2-0.2-0.2c-0.1,0-0.3,0-0.4,0.1c0,0.1,0.1,0.2,0.1,0.2C39.6,7.4,39.8,7.4,40,7.3
				C39.9,7.3,40,7.3,40,7.3z"/>
			<path d="M34.5,7.4c0.2,0,0.4,0,0.6,0c0,0,0-0.1,0.1-0.1C35.1,7.2,35,7.1,35,7.1C34.8,7.1,34.6,7,34.5,7.4z"/>
			<path d="M34,7.3c-0.1-0.1-0.1-0.1-0.2-0.2c-0.1,0-0.3,0-0.4,0.1c0,0.1,0.1,0.2,0.1,0.2C33.6,7.4,33.8,7.4,34,7.3
				C33.9,7.3,34,7.3,34,7.3z"/>
			<path d="M28.6,7.3c0.2,0,0.4,0,0.6,0V7.2c-0.1,0-0.2-0.1-0.3-0.1C28.8,7.1,28.5,7,28.6,7.3z"/>
			<path d="M41.1,7.4c0.1-0.3-0.2-0.2-0.3-0.2s-0.3-0.1-0.3,0.2C40.8,7.4,40.9,7.4,41.1,7.4z"/>
			<path d="M38.8,7.3c-0.1-0.1-0.1-0.2-0.2-0.1c-0.2,0-0.4-0.1-0.4,0.2C38.3,7.3,38.5,7.3,38.8,7.3C38.7,7.3,38.7,7.3,38.8,7.3z"/>
			<path d="M36.9,7.4c0.2,0,0.4,0,0.7,0c-0.1-0.1-0.2-0.2-0.2-0.2C37.2,7.2,37,7,36.9,7.4z"/>
			<path d="M35.8,7.4c0.2,0,0.4,0,0.5,0c0.1-0.3-0.1-0.2-0.2-0.2C35.9,7.1,35.7,7,35.8,7.4z"/>
			<path d="M32.2,7.4c0.2,0,0.4,0,0.6,0c0,0,0,0,0.1-0.1c-0.1-0.1-0.1-0.2-0.2-0.1C32.4,7.2,32.2,7,32.2,7.4z"/>
			<path d="M31.5,7.4c0-0.4-0.2-0.2-0.4-0.2c0-0.1-0.1,0-0.2,0.1v0.1C31.2,7.4,31.3,7.4,31.5,7.4z"/>
			<path d="M29.8,7.4c0.2,0,0.4,0,0.5,0c0.1-0.3-0.1-0.3-0.3-0.3C29.9,7.1,29.7,7.1,29.8,7.4z"/>
			<path d="M42,7.2v0.2h-0.2c0-0.1-0.1-0.1-0.1-0.1C41.8,7.3,41.9,7.2,42,7.2z"/>
		</g>
	</g>
</g>
</svg>
