<?xml version="1.0" encoding="utf-8"?>
<!-- Generator: Adobe Illustrator 25.2.1, SVG Export Plug-In . SVG Version: 6.00 Build 0)  -->
<svg version="1.1" id="Layer_1" xmlns="http://www.w3.org/2000/svg" xmlns:xlink="http://www.w3.org/1999/xlink" x="0px" y="0px"
	 viewBox="0 0 42.3 24" enable-background="new 0 0 42.3 24" xml:space="preserve">
<g id="Layer_9">
	<g>
		<path d="M22.2,3.9c-0.1,0.4-0.2,0.7-0.5,0.9c-0.3,0.3-0.8,0.4-1.2,0.3c-0.1,0-0.2,0-0.2,0.1C20.1,5.6,20,6,19.8,6.3
			c-0.1,0.2-0.2,0.4-0.4,0.5C19.2,7,19.1,7.1,19,7.1l1.1,1.1c-0.3,0.3-0.6,0.6-0.9,0.8l-1.1-1.1L17,9c0.2,0.1,0.4,0.3,0.7,0.4
			c0.1,0.1,0.1,0.1,0.1,0.2c0,2-0.2,3.9-0.9,5.8c0,0.1,0,0.2,0.1,0.3c1.3,1.3,2.6,2.5,3.8,3.8c0.1,0.1,0.1,0.2,0.1,0.3
			c-0.1,0.4-0.1,0.8-0.1,1.2c-0.4,0-0.9,0.1-1.3,0.1c-0.1,0-0.2-0.1-0.2-0.1c-1.1-1.1-2.1-2.1-3.2-3.2c0,0-0.1-0.1-0.2-0.2
			c-0.9,1.5-1.9,2.9-3.3,4c0-0.1,0-0.1,0-0.2c0-1.3,0-2.7,0-4c0-0.1,0-0.2,0.1-0.3c1.1-1.6,1.7-3.4,1.9-5.3c0-0.2,0.1-0.5,0.1-0.7
			c-0.4-0.1-0.7-0.2-1.1-0.3c-0.4-0.1-0.7-0.2-1.1-0.2v-3c0.5,0.1,1,0.2,1.6,0.3c0.2,0,0.4,0.1,0.6,0.2c0.1,0,0.2,0,0.2,0
			C15.4,7.6,16,7,16.5,6.5c-0.4-0.4-0.8-0.8-1.1-1.1l0.9-0.9l1,1.1l0.1-0.1c0.2-0.3,0.5-0.5,0.8-0.6c0.4-0.1,0.8-0.3,1.2-0.5
			c-0.1-0.4-0.1-0.8,0.1-1.2c0.3-0.5,0.8-0.8,1.4-0.7c0.5,0,1,0.5,1.2,1c0,0.1,0,0.1,0.1,0.2V3.9z"/>
		<path d="M1.8,3.5C1.9,3.2,2,2.8,2.3,2.6C2.8,2.2,3.5,2.1,4,2.5C4.5,2.8,4.8,3.4,4.6,4c0,0.1,0,0.1,0,0.2C5,4.4,5.5,4.6,5.9,4.8
			C6.2,4.9,6.3,5,6.5,5.2c0.1,0.1,0.1,0.2,0.2,0.2l1.1-1.1l0.9,0.9L7.4,6.4c0.2,0.2,0.4,0.5,0.7,0.7C8.4,7.3,8.7,7.6,9,7.9
			C9.1,8,9.2,8,9.3,8c0.7-0.2,1.4-0.3,2.1-0.5v3.1c-0.3,0.1-0.7,0.1-1.1,0.2C10,11,9.7,11.1,9.4,11.2c-0.1,0-0.1,0.1-0.1,0.2
			c0.2,2.1,0.8,4.1,2,5.9c0,0.1,0.1,0.1,0.1,0.2c0,1.4,0,2.8,0,4.2l0,0c-1.4-1-2.4-2.4-3.3-3.9C8,17.9,8,18,7.9,18
			c-1.1,1.1-2.1,2.1-3.2,3.2c-0.1,0.1-0.2,0.1-0.3,0.1c-0.3,0-0.7-0.1-1-0.1c-0.1,0-0.2-0.1-0.2-0.2c0-0.3-0.1-0.6-0.1-1
			c0-0.1,0-0.3,0.1-0.3C4.5,18.4,5.7,17.2,7,16c0.1-0.1,0.1-0.2,0.1-0.4c-0.7-1.9-0.9-3.9-0.9-5.9c0-0.1,0-0.2,0.1-0.2
			C6.5,9.3,6.8,9.1,7,9L6,7.9L4.8,9.1L3.9,8.2c0.3-0.3,0.7-0.7,1.1-1L4.9,7.1C4.5,6.9,4.3,6.6,4.2,6.2c-0.1-0.3-0.3-0.7-0.4-1
			c0-0.1-0.1-0.1-0.2-0.1C2.7,5.3,2,4.9,1.8,4V3.9V3.5z"/>
		<path d="M10.6,12.1c0.9-0.3,1.9-0.3,2.8,0c-0.2,1.4-0.6,2.8-1.4,4.1C11.2,14.8,10.8,13.5,10.6,12.1z"/>
	</g>
</g>
<g id="Layer_7">
	<g>
		<path d="M32.6,22.1c0-0.8,0-1.4,0-2.2c0-0.1,0-0.2,0.2-0.3c2.6-1.4,4.2-3.5,5-6.3c0.2-0.8,0.3-1.5,0.3-2.3c0-1,0-2,0-3
			c0-0.1,0-0.2-0.2-0.2c-1.7-0.5-3.4-0.9-5.1-1.4c-0.1,0-0.2-0.1-0.2-0.3c0-0.7,0-1.2,0-1.9c0-0.1,0-0.1,0-0.2
			c0.4,0.1,0.7,0.2,1,0.3c2.2,0.6,4.2,1.2,6.4,1.8c0.1,0,0.2,0.1,0.2,0.2c0,1.6,0,3.3,0,4.9c-0.1,3.6-1.6,6.6-4.3,8.9
			c-0.9,0.8-1.9,1.3-3,1.8C32.6,22,32.6,22,32.6,22.1L32.6,22.1z"/>
		<path d="M31.4,22.1C31.3,22,31.1,22,31,21.9c-3.2-1.4-5.4-3.9-6.5-7.1C24.2,13.5,24,12.3,24,11c0-1.5,0-3,0-4.5
			c0-0.2,0-0.2,0.2-0.3c2.3-0.7,4.7-1.4,7.1-2.1c0,0,0.1,0,0.2,0c0,0.1,0,0.1,0,0.2c0,0.7,0,1.2,0,1.9c0,0.2-0.1,0.2-0.2,0.2
			c-1.7,0.5-3.4,0.9-5.1,1.4c-0.1,0-0.1,0-0.1,0l0,0c0,1.3,0,2.6,0,3.9c0.1,2.3,0.9,4.1,2.4,5.8c0.8,0.8,1.7,1.5,2.7,2.1
			c0.1,0.1,0.2,0.1,0.2,0.3C31.4,20.6,31.4,21.3,31.4,22.1L31.4,22.1z"/>
		<path d="M27.2,12c1.1-0.3,2.3-0.7,3.4-0.9c0.5-0.1,0.8-0.3,1.3-0.4c0.1,0,0.2,0,0.2,0c1.5,0.5,3.1,0.8,4.6,1.3c0,0,0,0,0.1,0
			c-0.1,0.5-0.2,0.8-0.3,1.3c-0.7,2.4-2.2,4.2-4.4,5.4c-0.1,0-0.1,0.1-0.3,0c-2.5-1.3-4-3.5-4.6-6.3C27.2,12.3,27.2,12.1,27.2,12z"
			/>
		<path d="M36.9,10.9c-0.5-0.1-0.9-0.3-1.4-0.4c-1.1-0.3-2.2-0.7-3.3-0.9c-0.1,0-0.3,0-0.4,0c-1.5,0.4-3,0.8-4.5,1.2
			c-0.1,0-0.1,0-0.2,0c0-0.1,0-0.1,0-0.1c0-0.7,0-1.3,0-2c0-0.1,0-0.2,0.2-0.2c1.5-0.5,3.1-0.8,4.6-1.3c0.1,0,0.2,0,0.2,0
			c1.5,0.5,3.1,0.8,4.6,1.3c0.1,0,0.1,0,0.1,0.2C36.9,9.5,36.9,10.1,36.9,10.9C36.9,10.8,36.9,10.8,36.9,10.9z"/>
	</g>
</g>
</svg>
