<?xml version="1.0" encoding="utf-8"?>
<!-- Generator: Adobe Illustrator 25.2.1, SVG Export Plug-In . SVG Version: 6.00 Build 0)  -->
<svg version="1.1" id="Layer_1" xmlns="http://www.w3.org/2000/svg" xmlns:xlink="http://www.w3.org/1999/xlink" x="0px" y="0px"
	 viewBox="0 0 40.4 24" enable-background="new 0 0 40.4 24" xml:space="preserve">
<g id="Layer_8">
	<path d="M7.3,5.4H5.4l9,9l1-0.9 M20.3,19.5l-0.8,0.8c-0.4,0.4-1,0.4-1.4,0L15,17.2l-2.7,2.7l-1.4-1.4l1.4-1.4l-8.9-9V3.4h4.8
		l8.9,8.9l1.4-1.4l1.4,1.4L17.2,15l3.1,3.1C20.7,18.5,20.7,19.1,20.3,19.5z"/>
</g>
<g id="Layer_5">
	<path d="M24.2,5.1c0.5-0.4,1-0.5,1.5-0.5c1.8-0.5,3.6-0.6,5.5-0.5c1.8,0,3.6,0.2,5.4,0.6C37,4.8,37.3,4.8,37.7,5
		c0.5,0.2,0.6,0.5,0.6,0.9c0,1.4,0,2.7,0,4.1c0,1.3,0,2.5-0.1,3.9c-0.3,3.8-2.9,7-6.6,8c-0.7,0.2-1.3,0-1.9-0.3
		c-3.6-1.4-5.8-4.7-5.8-8.5c0-2.5,0.1-5,0.1-7.5l0,0C24.1,5.4,24.2,5.3,24.2,5.1z M28.9,16.9C29,16.9,29,16.9,28.9,16.9
		c1.9,0.8,4.1,0.5,5.6-0.9c0.4-0.4,0.4-0.8,0.1-1.2c-0.3-0.4-0.8-0.4-1.2,0c-1.3,1.3-3.4,1.3-4.8,0c-0.4-0.4-0.8-0.4-1.2,0
		c-0.4,0.4-0.4,0.8,0,1.2C28.1,16.3,28.5,16.7,28.9,16.9z M30,10.9c0.2-0.3,0.1-0.6-0.1-0.9c-0.9-1.1-2.8-1.1-3.7,0
		c-0.3,0.3-0.3,0.5-0.2,0.7c0.2,0.5,0.8,0.8,1.3,0.4c0.4-0.3,0.7-0.4,1.1-0.2c0.2,0.1,0.3,0.2,0.5,0.3C29.2,11.5,29.9,11.3,30,10.9z
		 M35.4,11.3c0.4,0.2,0.8,0.1,1-0.2c0.3-0.3,0.2-0.7-0.1-1c-1-1-2.7-1.1-3.7,0c-0.4,0.5-0.3,1.1,0.3,1.3c0.3,0.1,0.5,0,0.8-0.2
		c0.5-0.5,1-0.5,1.5,0C35.4,11.2,35.4,11.2,35.4,11.3z"/>
</g>
</svg>
