<?xml version="1.0" encoding="utf-8"?>
<!-- Generator: Adobe Illustrator 25.2.1, SVG Export Plug-In . SVG Version: 6.00 Build 0)  -->
<svg version="1.1" id="Layer_65" xmlns="http://www.w3.org/2000/svg" xmlns:xlink="http://www.w3.org/1999/xlink" x="0px" y="0px"
	 viewBox="0 0 24 24" style="enable-background:new 0 0 24 24;" xml:space="preserve">
<g>
	<path d="M15.5,6.4c-0.2,0.5-0.5,0.9-0.9,1.2c-0.4,0.3-0.7,0.4-1.2,0.5c-0.4,0.1-0.8,0.1-1.2,0.1c-1,0-1.8-0.2-2.4-0.6
		C8.9,7.2,8.5,6.4,8.5,5.3V2.2h7.2v3.1C15.6,5.8,15.6,6.1,15.5,6.4z M14.4,3.7H9.7V5c0,0.7,0.4,1.2,1,1.5c0.4,0.2,0.8,0.2,1.4,0.2
		c0.7,0,1.3-0.1,1.7-0.3s0.6-0.7,0.6-1.4V3.7z"/>
	<path d="M15.5,13.1c-0.2,0.5-0.5,0.9-0.9,1.2c-0.4,0.3-0.7,0.4-1.2,0.5C13,14.9,12.6,15,12.2,15c-1,0-1.8-0.2-2.4-0.6
		c-0.9-0.5-1.3-1.3-1.3-2.4V8.9h7.2V12C15.6,12.4,15.6,12.8,15.5,13.1z M14.4,10.3H9.7v1.4c0,0.7,0.4,1.2,1,1.5
		c0.4,0.2,0.8,0.2,1.4,0.2c0.7,0,1.3-0.1,1.7-0.3c0.4-0.2,0.6-0.7,0.6-1.4V10.3z"/>
	<path d="M13.4,20.4c0.5-0.1,0.8-0.4,1-0.8c0.1-0.2,0.2-0.5,0.2-0.8c0-0.6-0.2-1.1-0.7-1.4c-0.4-0.4-1.1-0.6-2-0.6
		c-0.9,0-1.5,0.2-1.9,0.6s-0.6,0.9-0.6,1.4c0,0.5,0.1,0.9,0.4,1.2s0.7,0.5,1.1,0.6v-1.7h1.2v3H8.5v-1l0.9-0.2
		C9,20.4,8.8,20.2,8.6,20c-0.2-0.4-0.4-0.9-0.4-1.5c0-1,0.3-1.7,1-2.3c0.7-0.6,1.6-1,2.7-1c1.2,0,2.1,0.3,2.8,1
		c0.7,0.6,1.1,1.5,1.1,2.5c0,0.9-0.2,1.6-0.7,2.2c-0.5,0.6-1,0.9-1.7,1V20.4z"/>
</g>
</svg>
