<?xml version="1.0" encoding="utf-8"?>
<!-- Generator: Adobe Illustrator 25.2.1, SVG Export Plug-In . SVG Version: 6.00 Build 0)  -->
<svg version="1.1" id="Layer_64" xmlns="http://www.w3.org/2000/svg" xmlns:xlink="http://www.w3.org/1999/xlink" x="0px" y="0px"
	 viewBox="0 0 24 24" style="enable-background:new 0 0 24 24;" xml:space="preserve">
<g>
	<path d="M14.9,8.4c-0.3,0.2-0.7,0.3-1.1,0.3c-0.4,0-0.8-0.1-1.1-0.3c-0.1-0.1-0.3-0.3-0.4-0.5c-0.1,0.4-0.3,0.6-0.6,0.8
		S11,9,10.6,9c-0.4,0-0.8-0.1-1.1-0.3C9.3,8.5,9.1,8.3,8.9,8.1C8.7,7.9,8.6,7.6,8.5,7.3C8.5,7,8.5,6.7,8.5,6.3V3.1h7.2v3.5
		C15.6,7.4,15.4,8,14.9,8.4z M11.6,4.5H9.7v1.7c0,0.3,0,0.6,0.1,0.7c0.2,0.3,0.5,0.5,0.9,0.5c0.4,0,0.6-0.2,0.8-0.5
		c0.1-0.2,0.1-0.4,0.1-0.7V4.5z M14.4,4.5h-1.6v1.7c0,0.3,0.1,0.6,0.2,0.8c0.1,0.2,0.3,0.3,0.6,0.3c0.3,0,0.6-0.1,0.7-0.4
		c0.1-0.2,0.1-0.5,0.1-0.9V4.5z"/>
	<path d="M15.6,9.7v1.5H9.7v3.6H8.5V9.7H15.6z"/>
	<path d="M15.6,15.3v1.5h-3l3,2.8v1.9l-3-3l-4.2,3.1v-1.9l3.1-2.2l-0.7-0.7H8.5v-1.5H15.6z"/>
</g>
</svg>
