<?xml version="1.0" encoding="utf-8"?>
<!-- Generator: Adobe Illustrator 25.2.1, SVG Export Plug-In . SVG Version: 6.00 Build 0)  -->
<svg version="1.1" id="Layer_63" xmlns="http://www.w3.org/2000/svg" xmlns:xlink="http://www.w3.org/1999/xlink" x="0px" y="0px"
	 viewBox="0 0 24 24" style="enable-background:new 0 0 24 24;" xml:space="preserve">
<g>
	<path d="M11.6,8c-0.4-0.4-0.5-1-0.5-1.8V4.7H8.5V3.2h7.2v3.1c0,0.7-0.2,1.3-0.6,1.7c-0.4,0.4-0.9,0.6-1.7,0.6
		C12.5,8.6,11.9,8.4,11.6,8z M14.2,6.8c0.2-0.2,0.2-0.5,0.2-0.8V4.7h-2.1V6c0,0.3,0.1,0.6,0.3,0.8s0.4,0.3,0.8,0.3
		C13.7,7.1,14,7,14.2,6.8z"/>
	<path d="M15.6,10.6v1.7l-7.2,2.5v-1.6l1.5-0.5v-2.7L8.5,9.6V8L15.6,10.6z M11.2,10.5v1.8l2.8-0.9L11.2,10.5z"/>
	<path d="M15.5,19.8c-0.1,0.3-0.3,0.5-0.5,0.7c-0.2,0.2-0.4,0.3-0.6,0.4c-0.2,0.1-0.5,0.1-0.8,0.1c-0.3,0-0.7-0.1-1-0.3
		s-0.6-0.5-0.7-0.9c-0.1,0.3-0.3,0.6-0.6,0.7c-0.2,0.1-0.6,0.2-1.1,0.2H9.7c-0.3,0-0.6,0-0.7,0c-0.2,0-0.3,0.1-0.4,0.3H8.5v-1.7
		c0.2,0,0.3-0.1,0.4-0.1c0.2,0,0.4-0.1,0.6-0.1l0.7,0c0.5,0,0.8-0.1,0.9-0.2c0.2-0.2,0.2-0.4,0.2-0.9v-1.5H8.5v-1.5h7.2v3.4
		C15.6,19.1,15.6,19.5,15.5,19.8z M14.4,16.7h-1.9v1.6c0,0.3,0,0.6,0.1,0.7c0.1,0.3,0.4,0.4,0.8,0.4c0.4,0,0.7-0.1,0.9-0.4
		c0.1-0.2,0.1-0.4,0.1-0.7V16.7z"/>
</g>
</svg>
