<?xml version="1.0" encoding="utf-8"?>
<!-- Generator: Adobe Illustrator 25.2.1, SVG Export Plug-In . SVG Version: 6.00 Build 0)  -->
<svg version="1.1" id="Layer_76" xmlns="http://www.w3.org/2000/svg" xmlns:xlink="http://www.w3.org/1999/xlink" x="0px" y="0px"
	 viewBox="0 0 24 24" style="enable-background:new 0 0 24 24;" xml:space="preserve">
<g>
	<g>
		<path d="M22,11.5c-0.1-2.2-0.9-4.3-2.3-6c-0.1-0.1-0.2-0.1-0.2-0.1c-0.2,0-0.4,0-0.6,0c0,0,0,0-0.1,0c0-0.2,0-0.4,0-0.7
			c0-0.1,0-0.2-0.1-0.2c-1.6-1.3-3.3-2.2-5.4-2.4C9.7,1.7,6.7,2.8,4.3,5.6C3,7,2.4,8.8,2.1,10.8c0,0.2,0,0.3-0.1,0.6v1.2
			c0,0.3,0.1,0.8,0.1,1.1c0.4,2.5,1.8,4.5,3.8,6.2C6,19.9,6.1,20,6.2,20c0.2,0,0.4-0.1,0.6-0.1c0,0,0.1,0,0.2,0.1
			c0.1,0.2,0.2,0.3,0.2,0.6c0.1,0.2,0.2,0.3,0.4,0.4c1.1,0.6,2.3,0.9,3.5,1h0.1h1.2c0.3,0,0.8-0.1,1.1-0.1c3-0.6,5.3-2.1,6.9-4.8
			C21.6,15.4,22.1,13.5,22,11.5z M12,19.1c-4,0-7.2-3.2-7.1-7.2c0-4,3.2-7.2,7.2-7.2s7.2,3.2,7.1,7.2C19.2,15.9,15.9,19.1,12,19.1z"
			/>
		<path d="M12.5,11.9c0,0.3-0.2,0.6-0.6,0.6s-0.6-0.2-0.6-0.6s0.2-0.6,0.6-0.6S12.5,11.6,12.5,11.9z"/>
	</g>
	<g>
		<path d="M7.8,7.6v8.6C6.7,15.1,6,13.6,6,11.9C5.9,10.3,6.7,8.7,7.8,7.6z"/>
		<path d="M11.4,5.9v4.2c0,0.1-0.1,0.1-0.1,0.1c-0.7,0.3-1,0.9-1,1.6c0,0.8,0.3,1.2,1,1.6c0.1,0,0.1,0.1,0.1,0.1v4.3
			C10.6,17.7,9.7,17.5,9,17V6.7C9.7,6.3,10.6,6,11.4,5.9z"/>
		<path d="M12.5,10.1V5.9c0.2,0,0.6,0.1,0.8,0.1c0.6,0.1,1.1,0.3,1.6,0.6C15,6.6,15,6.7,15,6.8c0,0.9,0,1.7,0,2.5
			c0,0.1-0.1,0.2-0.1,0.2c-0.6,0.3-1.1,0.6-1.7,0.9c0,0-0.1,0-0.2,0l-0.1-0.1C12.7,10.4,12.5,10.3,12.5,10.1z"/>
		<path d="M15.1,16.9v0.3c-0.8,0.4-1.6,0.7-2.4,0.8v-4.3c0,0,0-0.1,0.1-0.1c0.9-0.4,1.1-1.1,1.1-2c0.4-0.2,0.9-0.4,1.3-0.7
			c0,0.1,0,0.1,0,0.2C15.1,13,15.1,14.9,15.1,16.9z"/>
		<path d="M18.1,11.9c0,1.7-0.7,3.2-1.8,4.3V7.6C17.3,8.7,18.1,10.3,18.1,11.9z"/>
	</g>
</g>
</svg>
