<?xml version="1.0" encoding="utf-8"?>
<!-- Generator: Adobe Illustrator 25.2.1, SVG Export Plug-In . SVG Version: 6.00 Build 0)  -->
<svg version="1.1" id="Layer_69" xmlns="http://www.w3.org/2000/svg" xmlns:xlink="http://www.w3.org/1999/xlink" x="0px" y="0px"
	 viewBox="0 0 24 24" style="enable-background:new 0 0 24 24;" xml:space="preserve">
<path d="M7.8,2.2L5.7,4.3L4.3,2.9L2.9,4.3l1.4,1.4L2.2,7.8l1.4,1.4l-1.4,1.4L3.6,12l3.5-3.5l8.4,8.4L12,20.4l1.4,1.4l1.4-1.4
	l1.4,1.4l2.1-2.1l1.4,1.4l1.4-1.4l-1.4-1.4l2.1-2.1l-1.4-1.4l1.4-1.4L20.4,12l-3.5,3.5L8.5,7.1L12,3.6l-1.4-1.4L9.2,3.6L7.8,2.2z"/>
</svg>
